<?xml version="1.0" standalone="no"?>
<!DOCTYPE svg PUBLIC "-//W3C//DTD SVG 20010904//EN"
 "http://www.w3.org/TR/2001/REC-SVG-20010904/DTD/svg10.dtd">
<svg version="1.0" xmlns="http://www.w3.org/2000/svg"
 width="3840.000000pt" height="3840.000000pt" viewBox="0 0 3840.000000 3840.000000"
 preserveAspectRatio="xMidYMid meet">
<metadata>
Created by potrace 1.11, written by Peter Selinger 2001-2013
</metadata>
<g transform="translate(0.000000,3840.000000) scale(0.100000,-0.100000)"
fill="#000000" stroke="none">
<path d="M28663 26933 c-15 -21 -36 -47 -45 -57 -10 -11 -18 -26 -18 -33 0 -8
-4 -11 -10 -8 -5 3 -10 -3 -10 -14 0 -11 -4 -22 -9 -26 -12 -7 -44 -110 -45
-145 -1 -18 -7 -26 -23 -28 -13 -2 -23 1 -23 7 0 6 -9 11 -20 11 -11 0 -20 5
-20 10 0 6 -9 10 -20 10 -11 0 -20 5 -20 10 0 6 -7 10 -15 10 -9 0 -25 9 -37
20 -12 11 -36 20 -53 20 -18 0 -46 7 -64 16 -45 22 -83 11 -100 -29 -8 -18
-22 -41 -31 -52 -10 -11 -21 -31 -25 -45 -4 -14 -13 -32 -21 -40 -7 -9 -17
-36 -23 -60 -6 -25 -22 -67 -35 -95 -14 -27 -26 -55 -26 -61 0 -6 -7 -17 -15
-24 -8 -7 -18 -30 -21 -51 -4 -21 -17 -48 -30 -60 -13 -12 -24 -28 -24 -34 0
-25 -46 -53 -99 -59 -30 -4 -60 -10 -65 -14 -12 -7 -18 -9 -41 -11 -8 0 -15
-7 -15 -14 0 -7 -13 -26 -28 -40 -25 -24 -34 -27 -70 -21 -34 5 -43 3 -47 -10
-3 -9 -8 -24 -12 -33 -3 -10 -7 -20 -8 -23 -1 -3 -7 -18 -14 -35 -6 -16 -14
-37 -17 -45 -4 -10 -8 -11 -11 -3 -2 6 3 28 11 48 19 45 20 59 4 48 -17 -10
-31 -13 -98 -19 -30 -2 -62 -7 -70 -11 -19 -8 -42 -14 -57 -15 -7 -1 -13 -4
-13 -8 0 -4 -19 -16 -43 -28 -64 -32 -141 -110 -167 -169 -8 -18 -18 -30 -22
-27 -8 5 -21 -59 -27 -139 -1 -5 -5 -5 -11 -2 -10 6 -3 -21 10 -40 4 -5 10
-22 14 -36 3 -15 18 -34 32 -44 24 -15 32 -16 66 -4 22 7 42 19 45 26 3 7 11
13 18 13 7 0 15 7 19 15 3 8 12 15 19 15 8 0 30 13 48 30 19 16 37 30 42 30 4
0 7 7 7 16 0 8 5 12 10 9 6 -3 10 1 10 10 0 15 27 72 40 85 3 3 11 17 19 33 8
15 20 27 27 27 12 0 0 -38 -27 -80 -5 -8 -13 -24 -18 -35 -5 -12 -16 -27 -25
-34 -9 -7 -16 -18 -16 -23 0 -13 -51 -74 -59 -71 -7 2 -67 -42 -97 -71 -12
-12 -40 -39 -63 -60 -22 -22 -41 -44 -42 -50 0 -6 -4 -2 -9 9 -5 13 -7 -7 -5
-52 2 -51 -1 -76 -11 -83 -24 -21 -47 -6 -63 40 -9 25 -27 65 -39 88 -24 45
-24 52 1 56 8 1 21 7 28 13 27 22 66 20 72 -4 3 -10 5 -4 6 14 1 27 -2 30 -20
26 -18 -5 -45 17 -48 40 0 4 -8 22 -18 40 -9 17 -17 37 -18 42 0 6 -6 20 -13
33 -11 19 -10 22 3 22 8 0 15 -4 15 -9 0 -5 9 -11 20 -14 11 -3 17 -1 14 4 -3
5 -1 24 5 42 44 147 55 271 30 344 -7 21 -12 41 -11 44 1 7 -37 52 -99 116
-37 38 -69 48 -69 22 0 -6 -9 -19 -20 -31 -10 -11 -22 -34 -26 -51 -3 -16 -13
-46 -22 -66 -31 -70 -36 -157 -12 -232 15 -48 15 -59 4 -59 -17 0 -18 -22 -1
-39 8 -10 9 -12 0 -7 -7 4 -16 -2 -22 -12 -12 -22 -5 -121 10 -139 7 -7 8 -13
4 -13 -4 0 -2 -6 4 -13 6 -8 8 -17 5 -20 -7 -7 32 -65 61 -89 11 -10 15 -17 8
-18 -18 0 -16 -20 2 -20 8 0 15 -4 15 -10 0 -5 -5 -10 -11 -10 -14 0 -39 -63
-39 -100 0 -17 -4 -29 -9 -25 -33 20 2 -93 37 -120 10 -8 1 -14 -35 -23 -26
-7 -62 -17 -79 -22 -17 -6 -47 -10 -67 -10 -20 0 -38 -4 -41 -9 -3 -5 -20 -11
-38 -14 -62 -10 -93 -20 -108 -32 -24 -21 -101 -26 -450 -34 -323 -8 -377 -14
-410 -47 -6 -6 -7 -45 -2 -99 l7 -90 45 -7 c25 -3 75 -11 111 -16 37 -5 75
-14 84 -20 17 -9 16 -11 -8 -27 -14 -9 -29 -25 -32 -36 -4 -11 -10 -17 -14
-15 -4 3 -14 -10 -21 -29 -8 -19 -17 -35 -21 -35 -17 0 -42 -119 -42 -202 0
-46 4 -61 24 -83 54 -59 74 -74 115 -85 24 -7 44 -17 44 -22 0 -5 5 -6 10 -3
6 4 8 11 5 16 -4 5 -3 15 1 21 5 7 9 19 10 28 2 18 14 95 20 130 2 14 6 41 8
60 2 19 9 48 15 63 17 44 16 110 -2 147 -10 18 -17 42 -17 52 0 19 6 19 113
14 234 -12 332 -22 362 -39 47 -26 167 -22 330 12 77 16 143 26 147 22 4 -3 9
-15 11 -26 1 -11 6 -26 10 -32 5 -8 3 -13 -5 -13 -10 -1 -9 -4 2 -13 9 -7 14
-24 12 -44 -2 -24 4 -38 25 -58 31 -30 70 -48 84 -39 26 15 -8 -70 -41 -104
-30 -32 -34 -117 -5 -138 11 -8 25 -12 32 -10 7 3 13 -1 13 -9 0 -8 -7 -15
-15 -15 -8 0 -29 -6 -47 -14 -28 -12 -56 -23 -78 -31 -29 -10 -49 -24 -70 -48
-14 -16 -40 -44 -57 -63 -18 -19 -33 -39 -33 -44 0 -6 -4 -10 -10 -10 -5 0
-10 -6 -10 -13 0 -19 -37 -50 -49 -42 -18 11 -12 35 9 35 11 0 20 6 20 14 0 7
12 26 28 42 15 16 35 45 44 64 10 19 18 31 18 25 1 -5 9 16 20 48 18 58 20 93
4 91 -5 -1 -21 -4 -35 -7 -24 -6 -25 -5 -23 36 3 45 -12 117 -24 117 -4 0 -22
-13 -40 -29 -17 -16 -41 -32 -52 -36 -17 -5 -20 -2 -21 27 -1 54 -9 82 -28
101 -14 15 -22 16 -45 7 -15 -5 -32 -8 -36 -5 -5 3 -14 -4 -20 -15 -6 -11 -15
-18 -21 -15 -5 4 -12 -1 -15 -9 -3 -9 -12 -16 -19 -16 -8 0 -17 -9 -20 -21 -4
-11 -9 -18 -13 -15 -10 11 -82 -114 -82 -142 0 -5 -7 -9 -15 -9 -21 0 -19 29
4 54 23 25 58 137 55 176 -8 86 -57 167 -99 162 -43 -4 -85 -17 -85 -26 0 -5
-5 -9 -10 -9 -13 0 -80 -68 -80 -81 0 -6 -4 -7 -10 -4 -5 3 -10 0 -10 -8 0 -7
-8 -22 -18 -33 -42 -46 -58 -187 -25 -222 10 -10 25 -28 33 -40 8 -12 19 -22
24 -22 11 0 46 -40 46 -53 0 -5 -12 -7 -27 -3 -16 3 -39 8 -53 11 -14 3 0 -4
31 -15 53 -19 55 -22 51 -51 -4 -25 -8 -29 -26 -23 -11 4 -50 8 -86 8 -47 1
-70 6 -84 19 -11 9 -23 17 -27 17 -8 0 -5 29 5 51 4 11 16 15 29 13 19 -4 19
-3 -3 7 -14 7 -34 14 -45 16 -11 2 -56 15 -100 30 -81 27 -111 49 -142 108
-14 27 -97 115 -108 115 -3 0 -15 9 -27 19 -13 11 -36 31 -53 45 -36 31 -82
54 -124 62 l-31 7 5 -93 c3 -52 10 -99 17 -108 7 -8 11 -16 9 -16 -8 -2 33
-81 46 -89 7 -4 13 -12 13 -18 0 -5 14 -23 30 -39 17 -16 30 -33 30 -37 0 -12
69 -54 88 -54 44 0 77 11 93 30 9 11 22 21 27 21 6 0 14 9 17 21 4 11 9 18 12
15 4 -3 11 1 17 8 9 13 23 11 91 -11 44 -13 86 -31 94 -39 13 -11 11 -15 -10
-22 -22 -8 -53 0 -69 19 -3 3 -26 13 -51 21 l-46 16 2 -33 c0 -21 -3 -31 -11
-28 -24 9 -23 -15 1 -41 14 -15 25 -31 25 -36 0 -5 8 -14 18 -19 9 -6 13 -11
9 -11 -14 0 15 -47 60 -96 l22 -24 -1475 0 -1475 0 3 21 c5 38 29 44 80 20 39
-17 66 -21 157 -21 116 0 141 9 141 50 0 10 5 22 10 25 6 3 10 17 10 30 0 13
5 27 10 30 6 3 10 17 10 30 0 13 5 27 10 30 6 3 10 17 10 30 0 13 5 27 10 30
20 13 11 75 -15 99 -14 13 -25 28 -25 34 0 6 -8 26 -18 44 -10 18 -24 49 -32
68 -7 19 -22 46 -32 59 -10 13 -18 30 -18 38 0 8 -12 40 -27 71 -15 31 -28 64
-30 72 -12 64 -14 120 -5 136 11 20 80 44 128 44 64 0 92 11 104 41 13 30 49
59 76 59 9 0 44 13 78 30 34 16 89 36 121 45 97 25 115 36 115 69 0 30 42 86
65 86 6 0 24 14 40 30 16 17 34 30 41 30 6 0 17 7 24 15 10 12 49 15 229 15
257 0 304 9 309 58 5 52 19 57 206 62 l171 5 3 25 c4 34 92 302 105 318 16 20
2 94 -25 137 -28 45 -49 52 -248 95 -128 27 -152 39 -156 75 -2 15 -17 42 -33
59 -17 18 -31 36 -31 42 0 5 -18 28 -40 49 -22 21 -40 44 -40 51 0 19 -36 24
-177 24 l-132 0 -3 107 -3 107 -44 8 c-56 10 -67 21 -82 83 -6 28 -13 56 -15
63 -3 11 -30 13 -126 9 -149 -6 -218 -19 -259 -48 -28 -20 -30 -25 -25 -63 18
-115 23 -333 10 -396 -8 -36 -14 -76 -14 -91 0 -24 -54 -89 -75 -89 -5 0 -21
-11 -35 -25 -23 -22 -31 -24 -54 -15 -15 5 -38 10 -51 10 -32 0 -127 -30 -146
-47 -23 -19 -86 -28 -102 -14 -20 16 -414 -14 -447 -34 -11 -7 -91 7 -217 36
-45 10 -108 19 -140 19 -32 1 -76 7 -98 15 -103 38 -280 51 -311 24 -11 -9
-44 -24 -74 -34 -30 -10 -66 -26 -79 -36 -13 -11 -30 -19 -37 -19 -7 0 -28 -8
-46 -18 -18 -10 -64 -29 -103 -42 -38 -12 -77 -28 -85 -35 -8 -7 -40 -20 -70
-31 -30 -10 -62 -24 -70 -31 -9 -7 -40 -20 -70 -29 -30 -10 -62 -23 -70 -30
-8 -6 -41 -20 -73 -30 -77 -24 -107 -58 -107 -122 0 -46 0 -47 -140 -187 -134
-136 -140 -143 -134 -174 6 -28 2 -37 -32 -72 -21 -21 -43 -39 -49 -39 -6 0
-24 -13 -40 -30 -16 -16 -34 -30 -41 -30 -6 0 -28 -18 -49 -41 -29 -32 -36
-47 -33 -70 4 -23 -1 -33 -21 -46 -46 -31 -115 -68 -181 -96 -14 -6 -33 -17
-42 -25 -9 -7 -31 -22 -50 -31 -18 -10 -35 -27 -37 -37 -8 -48 -50 -64 -213
-85 -61 -7 -84 -15 -105 -35 -27 -25 -31 -25 -168 -25 -77 0 -162 0 -190 -1
-27 0 -86 3 -131 7 l-80 7 -19 -28 c-16 -24 -19 -48 -20 -148 0 -95 3 -120 15
-126 8 -5 61 -16 117 -26 57 -9 111 -24 121 -33 9 -9 25 -22 35 -30 28 -22
135 -40 238 -41 88 0 98 -2 125 -25 16 -14 39 -28 51 -31 44 -12 560 11 607
26 16 6 61 10 101 10 77 0 138 17 221 61 28 14 69 32 90 39 22 7 46 18 54 25
27 22 54 28 148 34 l92 6 0 -132 0 -133 -2068 0 -2068 0 -68 34 c-37 19 -75
41 -84 49 -9 8 -35 20 -57 27 -22 7 -49 20 -60 29 -11 10 -42 28 -70 41 -27
13 -59 31 -70 41 -11 9 -38 22 -60 29 -22 7 -49 20 -60 30 -11 9 -82 47 -158
84 -75 38 -139 72 -142 76 -3 5 -61 36 -130 70 -69 34 -127 65 -130 70 -3 5
-61 36 -129 70 -68 33 -129 67 -136 75 -30 36 -113 25 -129 -18 -5 -12 -16
-29 -25 -37 -15 -12 -23 -7 -69 38 -29 29 -57 52 -63 52 -6 0 -23 14 -39 30
-16 17 -34 30 -40 30 -6 0 -29 18 -50 40 -21 22 -44 40 -50 40 -6 0 -24 14
-40 30 -16 17 -34 30 -40 30 -6 0 -33 23 -60 50 -27 28 -54 50 -60 50 -6 0
-24 14 -40 30 -16 17 -34 30 -40 30 -6 0 -24 14 -40 30 -16 17 -34 30 -40 30
-6 0 -29 18 -50 40 -21 22 -44 40 -50 40 -6 0 -29 18 -50 40 -21 22 -44 40
-50 40 -6 0 -24 14 -40 30 -16 17 -34 30 -40 30 -6 0 -29 18 -50 40 -21 22
-44 40 -50 40 -6 0 -28 18 -50 40 -46 47 -83 58 -127 36 l-32 -16 -51 50 c-28
27 -55 50 -61 50 -5 0 -28 18 -49 40 -21 22 -44 40 -50 40 -6 0 -24 14 -40 30
-16 17 -34 30 -40 30 -6 0 -29 18 -50 40 -21 22 -44 40 -50 40 -6 0 -29 18
-50 40 -21 22 -44 40 -50 40 -6 0 -24 14 -40 30 -16 17 -34 30 -40 30 -6 0
-29 18 -50 40 -21 22 -44 40 -50 40 -6 0 -29 18 -50 40 -21 22 -44 40 -50 40
-6 0 -29 18 -50 40 -21 22 -44 40 -50 40 -19 0 -75 65 -75 86 0 12 9 47 20 79
24 71 25 89 1 140 -14 29 -32 47 -68 65 l-48 26 3 50 c3 40 0 53 -17 68 -12
11 -21 24 -21 31 0 6 -11 22 -25 35 -18 17 -42 25 -97 31 -40 5 -85 11 -100
15 -15 3 -43 3 -62 0 -26 -5 -36 -13 -41 -33 -3 -15 -15 -46 -26 -70 -10 -23
-19 -52 -19 -65 0 -30 -11 -68 -19 -68 -3 0 -11 10 -16 23 -15 33 -71 44 -141
27 -31 -8 -58 -19 -61 -26 -3 -8 2 -42 11 -77 19 -75 21 -158 4 -175 -7 -7
-25 -12 -41 -12 -16 0 -43 -7 -60 -15 -51 -24 -179 -65 -202 -65 -23 0 -150
-41 -201 -65 -60 -28 -61 -31 -34 -160 24 -116 24 -115 1 -139 -12 -13 -42
-29 -67 -36 -24 -7 -49 -19 -55 -26 -13 -16 -162 -90 -201 -99 -15 -4 -33 -13
-39 -21 -13 -16 -112 -64 -130 -64 -6 0 -22 -9 -36 -20 -14 -11 -34 -20 -44
-20 -15 0 -19 -8 -19 -39 0 -21 6 -44 14 -50 7 -6 16 -29 20 -50 3 -21 12 -44
20 -50 7 -6 16 -29 20 -50 3 -21 12 -44 20 -50 7 -6 16 -26 20 -44 13 -63 28
-85 66 -92 19 -4 42 -12 50 -20 8 -7 40 -20 70 -30 30 -10 60 -21 65 -26 24
-18 129 -16 185 3 51 18 83 25 213 48 27 5 54 13 60 18 7 6 39 17 72 25 60 15
60 15 121 -14 72 -34 119 -36 195 -10 112 38 124 37 187 -11 31 -23 109 -91
173 -150 65 -59 121 -108 125 -108 5 0 29 -20 54 -45 25 -25 60 -53 77 -63 17
-9 64 -48 103 -85 57 -54 69 -71 60 -82 -6 -7 -10 -31 -8 -52 2 -28 9 -41 27
-49 13 -7 49 -37 80 -67 31 -30 61 -56 66 -58 19 -7 146 -113 257 -214 60 -55
117 -103 126 -107 10 -3 42 -31 72 -62 30 -31 60 -56 67 -56 6 0 15 -4 18 -10
4 -7 -238 -10 -720 -10 l-726 0 31 30 c16 16 30 34 30 39 0 6 6 14 13 18 12 7
47 73 48 90 0 5 5 13 10 19 5 6 12 53 14 104 l5 93 -31 -7 c-42 -8 -88 -31
-124 -62 -16 -14 -40 -34 -53 -45 -12 -10 -24 -19 -27 -19 -11 0 -94 -88 -108
-115 -30 -57 -61 -82 -137 -108 -77 -28 -63 -29 23 -2 42 12 49 12 53 0 4 -8
10 -13 14 -10 4 3 10 -2 14 -10 4 -11 -2 -15 -20 -15 -14 0 -22 4 -19 10 4 6
-2 7 -17 1 -13 -4 -99 -8 -193 -8 -93 0 -163 1 -154 4 8 2 22 13 30 25 7 12
22 30 32 40 33 35 17 176 -25 222 -10 11 -18 26 -18 33 0 8 -5 11 -10 8 -6 -3
-10 -2 -10 4 0 13 -67 81 -80 81 -5 0 -10 4 -10 9 0 9 -42 22 -85 26 -42 5
-91 -76 -99 -162 -3 -39 32 -151 55 -176 23 -25 25 -54 4 -54 -8 0 -15 4 -15
9 0 28 -72 153 -82 142 -4 -3 -9 4 -13 15 -3 12 -12 21 -20 21 -7 0 -16 7 -19
16 -3 8 -10 13 -15 9 -6 -3 -15 4 -21 15 -6 11 -15 18 -20 15 -4 -3 -21 0 -36
5 -46 18 -71 -20 -73 -108 -1 -29 -4 -32 -21 -27 -11 4 -35 20 -52 36 -18 16
-36 29 -40 29 -12 0 -27 -72 -24 -117 2 -41 1 -42 -23 -36 -14 3 -30 6 -36 7
-11 1 -12 -38 -1 -71 7 -22 5 -23 -46 -23 -29 1 -71 8 -93 16 -22 9 -50 18
-62 21 -13 3 -23 11 -23 19 0 7 6 11 13 8 7 -2 21 2 32 10 29 21 25 106 -5
138 -33 34 -67 119 -41 104 14 -9 53 9 84 39 21 20 27 34 25 58 -2 20 3 37 12
44 12 10 12 12 1 13 -11 0 -11 3 -1 15 7 8 10 15 6 15 -3 0 -1 11 4 25 7 19 5
27 -9 37 -10 7 -20 19 -23 27 -2 8 -19 15 -37 16 -26 1 -41 -7 -76 -42 -24
-24 -46 -43 -50 -43 -11 0 -35 28 -35 40 0 6 -6 13 -13 16 -10 3 -13 19 -11
52 3 33 1 41 -5 27 -4 -11 -6 -25 -4 -31 7 -19 -14 -25 -27 -9 -7 8 -18 15
-25 15 -7 0 -18 6 -24 14 -6 7 -21 12 -34 12 -12 -1 -30 4 -39 12 -10 9 -18
11 -18 7 0 -4 -9 0 -21 11 -17 15 -36 18 -122 18 -56 0 -122 -4 -147 -8 -63
-11 -80 -9 -101 10 -11 9 -19 14 -19 9 0 -4 -7 -1 -17 6 -9 8 -19 13 -22 13
-3 -1 -16 2 -29 7 -50 19 -162 -2 -162 -30 0 -6 -6 -11 -14 -11 -8 0 -18 -9
-21 -20 -3 -11 -13 -20 -21 -20 -19 0 -18 29 1 36 8 4 15 13 15 20 0 8 6 17
14 20 7 3 22 21 32 40 10 19 24 34 31 34 7 0 10 7 7 15 -9 22 18 19 49 -5 14
-11 30 -20 35 -20 6 0 12 -5 14 -12 4 -12 39 -14 140 -5 47 4 62 10 88 36 36
36 56 39 65 11 4 -11 10 -18 15 -15 4 3 10 -2 14 -10 3 -8 12 -15 20 -15 7 0
28 -13 45 -29 17 -16 31 -27 31 -26 0 2 21 -6 48 -17 63 -28 111 -33 157 -14
41 18 57 14 48 -11 -4 -11 -3 -14 5 -9 15 9 16 46 2 46 -5 0 -10 4 -10 10 0 5
8 7 18 3 9 -3 14 -3 10 2 -4 4 -2 15 4 23 7 8 13 33 14 56 2 53 13 122 24 151
10 27 37 25 82 -7 14 -10 31 -18 37 -18 18 0 13 -20 -6 -27 -24 -9 -40 -32
-49 -68 -8 -37 -7 -32 -26 -76 -9 -20 -28 -46 -44 -59 -16 -12 -23 -21 -15
-18 8 2 28 -8 44 -24 17 -15 34 -25 38 -23 4 3 12 -1 18 -8 9 -11 51 -15 107
-8 20 2 47 66 37 87 -11 20 -11 70 0 80 3 4 1 16 -6 28 -13 22 -14 28 -16 63
0 13 -4 22 -8 22 -5 -1 -16 -1 -26 0 -27 2 -11 19 18 19 37 0 87 38 111 86 20
40 22 82 3 71 -5 -4 -9 8 -9 25 0 37 -25 100 -39 100 -6 0 -11 5 -11 10 0 6 7
10 15 10 18 0 20 20 3 20 -8 1 -4 8 7 18 29 24 68 82 61 89 -3 3 -1 12 5 20 6
7 8 13 4 13 -4 0 -3 6 4 13 15 18 22 117 10 139 -6 10 -15 16 -22 12 -9 -5 -8
-3 1 7 16 17 15 39 -2 39 -11 0 -11 11 4 59 24 75 19 162 -12 232 -9 20 -19
50 -22 66 -4 17 -16 40 -26 51 -11 12 -20 25 -20 31 0 26 -32 16 -69 -22 -62
-64 -100 -109 -99 -116 1 -3 -4 -23 -11 -44 -25 -73 -14 -197 30 -344 6 -18 8
-37 5 -42 -3 -5 3 -7 14 -4 11 3 20 9 20 14 0 5 7 9 15 9 13 0 14 -3 3 -22 -7
-13 -13 -27 -13 -33 -1 -5 -9 -25 -18 -42 -10 -18 -18 -36 -18 -40 -3 -23 -30
-45 -48 -40 -18 4 -21 1 -20 -26 1 -18 3 -24 6 -14 6 24 45 26 72 4 7 -6 20
-12 28 -13 26 -4 25 -11 -6 -71 -17 -32 -31 -63 -31 -68 0 -13 -48 -104 -64
-120 -7 -8 -19 -10 -32 -5 -22 9 -24 4 -38 -102 -3 -20 -16 -14 -46 22 -18 22
-39 40 -46 40 -7 0 -20 8 -30 18 -10 9 -19 16 -21 14 -2 -1 -17 5 -33 13 -16
8 -32 15 -35 15 -3 0 -6 0 -7 1 -19 5 -142 20 -158 19 -8 -1 -48 -1 -89 0 -54
1 -83 -4 -110 -18 -20 -10 -54 -25 -76 -32 -22 -7 -55 -28 -72 -47 -19 -20
-33 -28 -33 -20 0 8 10 25 23 39 22 23 57 87 57 103 0 4 8 19 19 33 32 46 39
107 25 202 -3 19 -7 46 -9 60 -12 82 -19 111 -26 116 -9 5 -69 -26 -69 -36 0
-8 -66 -80 -73 -80 -19 0 -55 -52 -63 -89 -1 -8 -6 -17 -11 -20 -4 -3 -9 -17
-9 -31 -3 -46 -4 -50 -17 -50 -7 0 -23 -9 -35 -20 -12 -11 -24 -20 -28 -20 -3
0 -15 -11 -25 -24 l-19 -24 -36 34 c-21 18 -40 31 -45 29 -4 -3 -10 2 -13 11
-3 8 -11 14 -18 13 -7 -1 -33 7 -58 19 -72 34 -81 31 -79 -30 1 -29 0 -57 -1
-63 -1 -5 -1 -22 0 -37 1 -16 -4 -28 -10 -28 -6 0 -10 8 -9 18 2 9 -1 35 -5
57 -9 43 -22 144 -26 185 0 11 -8 7 -24 -12 -27 -31 -95 -67 -113 -61 -7 3
-13 0 -13 -6 0 -8 -26 -11 -74 -10 -41 1 -78 -1 -84 -5 -5 -3 -15 1 -22 9 -7
8 -16 13 -20 10 -13 -8 -150 -14 -150 -6 0 3 12 12 28 18 25 12 42 33 58 76 4
10 13 16 20 13 8 -3 11 0 8 8 -3 8 -1 16 3 19 5 3 8 -23 7 -58 -1 -36 2 -62 7
-59 5 3 9 16 9 29 0 43 51 42 95 -1 22 -23 105 -29 105 -9 0 8 8 15 18 15 59
0 69 56 27 148 -63 136 -59 120 -29 125 31 6 58 20 72 36 43 53 46 63 47 167
0 57 -3 104 -7 104 -4 0 -5 7 -2 15 4 8 1 15 -6 15 -7 0 -10 7 -6 16 4 10 -1
25 -10 35 -13 14 -14 22 -6 32 7 8 14 30 16 51 3 20 9 42 13 49 11 18 14 36
13 92 -1 86 -14 135 -36 135 -17 0 -18 16 -3 26 14 8 -28 43 -52 44 -14 0 -16
14 -14 105 1 81 -3 118 -17 163 -11 31 -24 61 -29 66 -5 6 -9 18 -9 29 0 10
-4 15 -10 12 -5 -3 -10 0 -10 8 0 7 -8 22 -17 33 -10 10 -31 36 -46 57 -32 43
-40 44 -67 17 -11 -11 -23 -20 -27 -20 -12 0 -93 -92 -93 -106 0 -8 -4 -14 -9
-14 -11 0 -45 -64 -56 -105 -18 -69 -13 -158 15 -240 33 -96 51 -135 61 -135
4 0 11 -9 14 -20 4 -11 10 -18 15 -15 5 3 11 -4 15 -15 3 -11 11 -20 16 -20 5
0 22 -12 38 -26 27 -24 29 -30 24 -73 -3 -25 -3 -44 0 -41 3 3 7 19 9 35 4 33
44 105 59 105 11 0 12 -14 2 -24 -8 -8 -11 -23 -18 -104 -7 -74 -39 -139 -61
-121 -14 11 -20 -1 -14 -26 2 -5 3 -19 2 -30 0 -17 2 -16 11 5 21 46 35 54 65
40 15 -8 39 -14 55 -14 32 0 34 -7 7 -31 -11 -10 -20 -26 -20 -37 0 -10 -4
-18 -10 -18 -5 0 -10 -13 -10 -28 0 -16 -3 -32 -7 -36 -5 -4 -8 -11 -8 -14 -1
-4 -9 -32 -19 -62 -22 -64 -42 -88 -59 -71 -14 14 -40 14 -31 0 11 -18 6 -171
-5 -182 -8 -8 -11 -6 -11 7 0 9 -4 14 -10 11 -5 -3 -10 0 -10 8 0 17 -55 68
-90 83 -25 10 -24 11 8 11 25 0 42 9 67 35 35 36 36 37 16 106 -17 62 -33 92
-42 86 -5 -3 -9 1 -9 8 0 8 -10 20 -21 28 -12 8 -27 21 -34 27 -8 7 -22 14
-32 16 -10 2 -25 7 -33 10 -8 4 -26 9 -40 11 -14 3 -36 8 -50 11 -72 19 -180
0 -211 -35 -9 -11 -19 -16 -23 -13 -8 8 -89 -32 -105 -51 -9 -11 -9 -20 1 -37
20 -34 69 -77 110 -96 21 -10 38 -23 38 -30 0 -6 6 -14 13 -16 6 -3 1 -6 -11
-6 -33 -1 -82 -38 -76 -56 4 -8 10 -13 14 -10 5 3 12 -9 15 -27 4 -18 18 -49
31 -70 13 -21 24 -42 24 -48 0 -5 4 -10 9 -10 5 0 19 -16 31 -35 12 -19 27
-32 32 -29 8 5 9 -4 5 -26 -4 -18 -7 -41 -7 -51 0 -11 -10 -21 -25 -25 -34 -8
-41 -38 -16 -73 12 -16 21 -36 21 -44 0 -8 16 -25 34 -38 31 -21 37 -33 57
-114 12 -49 33 -110 45 -135 13 -25 48 -141 78 -259 48 -187 53 -216 41 -233
-14 -21 -65 -51 -72 -44 -3 2 6 24 18 48 20 39 32 101 18 93 -3 -2 -11 12 -18
31 -7 19 -17 32 -22 29 -5 -4 -9 1 -9 9 0 9 -3 16 -7 16 -5 0 -24 14 -43 31
-48 43 -79 63 -87 55 -3 -3 -12 -1 -20 6 -8 6 -32 12 -55 13 -22 1 -43 7 -47
12 -3 6 -13 11 -21 11 -8 1 -34 4 -57 8 -46 6 -57 0 -81 -46 -27 -52 -39 -114
-30 -145 15 -46 30 -75 38 -70 14 8 31 -46 20 -60 -9 -11 -16 -11 -38 1 -15 8
-32 14 -38 14 -6 0 -17 7 -24 15 -7 9 -15 13 -18 11 -2 -3 -17 1 -33 10 -16 8
-32 15 -36 15 -5 0 -15 7 -24 14 -8 8 -24 16 -36 18 -12 1 -28 9 -37 16 -9 7
-16 10 -17 5 0 -5 -4 0 -8 11 -12 29 -2 45 27 45 25 0 92 43 92 60 0 5 11 20
24 35 23 25 56 120 56 162 0 12 -7 28 -15 37 -8 8 -15 21 -15 28 0 23 -42 41
-102 43 -32 1 -58 -2 -58 -7 0 -4 -7 -8 -15 -8 -8 0 -24 -9 -35 -20 -11 -11
-22 -20 -25 -20 -8 0 -39 -34 -52 -58 -15 -25 -18 -122 -4 -122 5 0 12 -8 15
-18 4 -11 18 -25 31 -32 14 -7 25 -17 25 -22 0 -4 9 -17 20 -28 23 -23 26 -48
6 -56 -15 -6 -64 17 -100 46 -10 8 -20 14 -22 12 -2 -1 -31 11 -64 28 -33 17
-63 30 -66 29 -3 0 -14 9 -23 20 -10 11 -21 18 -25 14 -3 -3 -6 6 -6 20 0 21
5 27 20 27 26 0 80 52 109 103 26 46 35 167 13 175 -20 7 -43 33 -36 43 10 17
-7 86 -27 107 -10 12 -19 25 -19 30 0 11 -48 35 -75 38 -11 1 -37 -9 -57 -22
-21 -13 -41 -24 -45 -24 -5 0 -16 -17 -25 -38 -13 -28 -16 -57 -12 -121 2 -47
8 -87 13 -90 4 -3 12 -17 16 -31 4 -14 18 -35 31 -47 13 -12 24 -27 24 -33 0
-5 5 -10 10 -10 6 0 10 -7 10 -15 0 -8 5 -15 10 -15 6 0 10 -7 10 -15 0 -8 4
-15 9 -15 6 0 9 -9 8 -19 0 -11 -4 -19 -7 -19 -20 2 -19 -5 5 -24 24 -19 26
-23 11 -33 -18 -13 -84 -10 -124 7 -15 6 -29 12 -32 13 -3 1 -12 4 -20 8 -36
13 -48 13 -99 -5 -67 -22 -74 -23 -62 0 5 10 8 41 7 70 -3 40 0 55 13 61 17 9
55 -1 66 -18 3 -6 11 -8 17 -5 5 4 -7 16 -28 28 -51 28 -54 49 -11 77 57 38
94 137 89 244 -2 46 -33 155 -44 155 -5 0 -8 6 -8 14 0 7 -7 20 -16 27 -9 8
-28 32 -42 54 -14 22 -33 49 -44 60 -10 11 -31 35 -48 54 -16 19 -30 31 -30
26 0 -5 -6 -1 -13 10 -15 20 -42 12 -33 -11 3 -8 1 -14 -4 -14 -13 0 -70 -155
-74 -203 -7 -81 47 -275 89 -323 6 -7 18 -23 29 -38 10 -14 22 -23 26 -21 4 3
10 -2 14 -10 3 -8 11 -15 18 -15 13 0 48 -34 48 -46 0 -4 -11 -4 -25 -2 -13 3
-22 1 -19 -3 3 -5 12 -9 20 -9 17 0 18 -7 2 -24 -10 -10 -21 -8 -57 13 -76 42
-241 39 -293 -6 -10 -9 -25 -13 -33 -9 -15 5 -15 7 -1 22 38 38 66 83 68 110
3 34 17 47 35 32 7 -6 13 -7 13 -3 0 4 8 1 18 -6 15 -13 16 -12 3 4 -7 9 -19
17 -27 17 -7 0 -15 4 -19 10 -6 10 15 50 28 50 14 0 43 33 60 68 8 18 12 30 7
27 -4 -3 -13 18 -20 45 -7 28 -16 50 -20 50 -4 0 -13 14 -19 30 -5 17 -15 30
-20 30 -6 0 -11 7 -11 15 0 8 -4 15 -10 15 -5 0 -10 7 -10 15 0 8 -4 15 -8 15
-4 0 -16 13 -25 30 -10 16 -21 29 -25 27 -4 -1 -21 10 -37 26 -16 15 -36 27
-43 27 -7 0 -15 7 -18 15 -4 8 -16 15 -29 15 -12 0 -28 7 -35 15 -7 9 -15 13
-18 10 -3 -3 -12 1 -20 7 -8 7 -30 13 -48 14 -32 2 -34 1 -33 -29 2 -39 19
-95 36 -122 7 -11 13 -26 13 -35 0 -9 9 -22 20 -30 20 -14 27 -40 12 -40 -5 0
-17 9 -27 20 -23 25 -79 61 -103 65 -9 2 -17 4 -17 6 0 1 -11 2 -25 3 -14 1
-29 4 -35 8 -5 3 -26 8 -45 11 -48 8 -130 19 -160 22 -14 1 -33 6 -42 10 -23
9 -23 -1 2 -32 11 -14 20 -33 20 -41 0 -8 3 -12 7 -9 6 6 17 -8 55 -68 7 -11
21 -27 31 -36 9 -9 17 -21 17 -26 0 -5 20 -29 45 -52 25 -23 45 -47 45 -52 0
-6 5 -7 10 -4 6 3 10 2 10 -4 0 -5 17 -15 37 -22 21 -6 43 -14 48 -17 6 -4 20
-6 32 -7 12 0 25 -4 30 -10 4 -5 4 -7 0 -4 -7 6 -34 2 -115 -15 -29 -6 -83
-39 -104 -63 -18 -20 -30 -73 -17 -73 5 0 9 -7 9 -15 0 -8 3 -14 8 -13 10 3
49 -19 79 -45 13 -12 29 -23 34 -23 5 -1 11 -3 14 -4 3 -1 8 -3 13 -4 4 -1 12
-4 17 -7 13 -8 88 -33 95 -32 3 0 27 4 55 8 49 7 49 7 32 -12 -9 -11 -17 -31
-17 -44 0 -27 37 -66 67 -71 10 -2 24 -9 31 -15 7 -7 19 -13 27 -13 7 0 15 -9
18 -21 3 -12 10 -18 16 -15 6 4 20 2 32 -5 36 -19 153 -28 202 -16 34 9 36
-10 4 -45 -19 -20 -21 -29 -13 -56 11 -40 53 -72 89 -68 18 2 31 -3 37 -13 12
-23 62 -29 135 -16 80 13 95 12 95 -7 0 -27 54 -76 97 -87 29 -8 41 -18 50
-41 7 -19 18 -30 30 -30 11 0 23 -3 27 -7 7 -7 13 -9 88 -18 89 -12 166 54
184 155 9 55 7 78 -12 107 -39 61 4 76 70 23 10 -8 20 -14 22 -12 2 1 6 1 9 1
3 -1 8 -2 13 -3 4 -1 30 -13 57 -26 28 -13 53 -25 58 -26 4 -1 10 -3 15 -4 4
-1 10 -2 15 -1 4 0 7 -4 7 -9 0 -8 -68 -15 -120 -12 -23 1 -92 -50 -117 -87
-12 -18 -25 -50 -28 -70 -4 -20 -14 -52 -24 -71 -10 -19 -17 -44 -16 -55 3
-22 15 -129 19 -157 1 -10 15 -28 30 -41 25 -22 27 -29 21 -65 -4 -25 -2 -42
4 -47 6 -3 11 -19 11 -34 0 -15 9 -38 20 -51 11 -12 22 -31 25 -41 3 -10 15
-21 26 -24 27 -9 24 -23 -6 -31 -14 -3 -25 -10 -25 -14 0 -4 -16 -11 -36 -14
-19 -4 -43 -10 -52 -14 -15 -5 -15 -4 1 12 9 9 18 23 18 29 4 37 -10 121 -19
112 -4 -3 -14 15 -22 42 -9 26 -21 47 -28 46 -7 -2 -12 1 -12 5 0 5 -11 22
-25 38 -14 16 -25 35 -25 42 0 6 -5 12 -11 12 -6 0 -28 13 -49 30 -20 16 -40
27 -44 23 -3 -3 -6 -2 -6 4 0 9 -90 63 -105 63 -3 0 -6 0 -7 1 -15 4 -50 11
-80 15 l-37 6 5 -39 c6 -53 36 -145 51 -161 7 -7 13 -18 13 -24 0 -5 9 -23 21
-39 11 -16 18 -29 15 -29 -3 0 6 -12 19 -26 14 -15 21 -32 18 -41 -4 -10 -2
-14 5 -9 6 3 13 -3 17 -14 3 -11 11 -20 16 -20 5 0 9 -9 9 -21 0 -11 4 -18 8
-15 5 3 15 -6 22 -19 15 -27 76 -68 90 -60 5 3 11 1 14 -4 4 -5 -13 -16 -36
-24 -24 -9 -36 -16 -28 -16 9 -1 32 7 53 18 20 10 48 19 63 19 14 0 29 4 33 9
3 6 33 18 66 28 33 10 70 25 83 33 12 8 47 16 76 17 58 3 98 27 89 54 -2 9 3
3 12 -12 15 -26 15 -31 1 -52 -26 -40 -60 -72 -84 -79 -25 -8 -44 -38 -48 -78
-4 -34 0 -37 72 -43 33 -3 73 -7 89 -9 17 -1 40 4 53 11 18 11 27 12 37 3 11
-9 16 -7 25 9 15 28 16 94 2 99 -7 2 -12 8 -12 13 0 11 -68 79 -80 79 -16 0
-39 30 -34 44 3 8 26 19 52 26 26 7 56 18 67 25 32 19 117 45 127 39 5 -3 -3
-16 -17 -28 -47 -41 -80 -191 -48 -217 6 -6 10 -16 7 -23 -3 -7 4 -21 16 -31
11 -10 20 -24 20 -30 0 -7 11 -20 25 -29 14 -9 25 -23 25 -32 0 -8 4 -13 8
-10 5 3 14 -4 22 -14 8 -10 17 -17 22 -14 4 3 11 -2 14 -10 3 -9 12 -16 20
-16 10 0 9 -9 -5 -41 -26 -57 -32 -61 -102 -65 -76 -5 -94 -10 -138 -40 -31
-21 -51 -64 -29 -64 4 0 8 -5 8 -10 0 -6 9 -20 20 -32 11 -12 20 -18 20 -13 0
5 6 0 14 -10 7 -10 22 -20 32 -21 10 -2 27 -7 39 -13 26 -12 54 -21 59 -18 1
1 9 -3 17 -8 8 -6 30 -10 49 -10 45 1 130 25 130 36 0 5 6 9 13 9 12 0 27 19
58 75 12 23 24 30 51 32 l34 3 22 -77 c12 -43 24 -89 26 -103 1 -14 8 -26 14
-26 7 -1 14 -3 17 -4 12 -6 31 -6 40 1 6 5 20 8 30 8 11 -1 35 1 53 4 24 3 32
1 32 -10 0 -8 7 -29 15 -46 8 -18 42 -138 75 -267 33 -129 67 -248 74 -265 8
-16 17 -47 21 -67 4 -21 10 -36 14 -34 5 4 172 -625 171 -647 0 -5 -4 -5 -10
-2 -5 3 -20 8 -32 10 -12 3 -24 9 -28 15 -17 27 -68 -75 -77 -151 -4 -33 0
-57 14 -86 l20 -40 -21 1 c-14 1 -21 8 -22 21 -1 28 -57 138 -69 137 -6 0 -15
9 -22 21 -7 12 -12 18 -13 12 0 -5 -7 1 -16 13 -8 12 -19 20 -23 17 -5 -2 -19
7 -32 21 -28 30 -70 51 -118 59 -27 5 -32 3 -24 -7 8 -11 9 -38 4 -98 -1 -10
-7 -6 -16 10 -8 14 -14 22 -15 19 0 -4 -16 8 -37 27 -20 18 -40 31 -45 28 -4
-3 -11 2 -14 10 -6 16 -29 16 -66 1 -65 -26 -50 -234 23 -316 36 -40 37 -46 4
-25 -14 9 -25 13 -25 10 0 -4 -8 0 -17 8 -18 15 -50 29 -57 25 -1 -1 -9 3 -17
9 -8 6 -36 9 -64 8 -27 -2 -59 -4 -69 -4 -22 -1 -71 -26 -100 -52 -11 -10 -26
-18 -33 -18 -7 0 -13 -4 -13 -10 0 -5 -5 -10 -11 -10 -14 0 -69 -56 -69 -69 0
-5 9 -13 20 -16 11 -3 20 -10 20 -15 0 -4 30 -23 68 -40 37 -18 76 -37 87 -43
36 -19 143 -16 214 7 70 22 108 43 143 78 21 21 21 23 4 51 -18 32 -15 47 7
29 7 -6 28 -13 46 -14 36 -3 40 -7 47 -42 3 -19 -1 -26 -18 -31 -28 -8 -91
-38 -98 -46 -3 -4 -15 -9 -26 -13 -31 -9 -108 -88 -133 -135 -23 -42 -38 -171
-21 -171 6 0 10 -6 10 -14 0 -7 12 -16 26 -19 29 -5 94 12 94 25 0 4 5 8 11 8
9 0 76 27 124 51 20 10 45 52 45 76 0 7 4 13 9 13 6 0 6 -12 2 -28 -12 -42 2
-212 17 -198 3 3 11 1 17 -4 11 -9 72 4 85 19 3 3 23 16 45 27 25 14 48 37 62
64 22 42 23 42 32 17 9 -22 14 -24 60 -22 52 3 85 21 141 77 l31 31 15 -22
c17 -24 34 -28 34 -8 0 8 9 22 19 31 18 17 20 17 29 -1 5 -10 12 -30 16 -45 5
-23 3 -27 -25 -33 -17 -4 -33 -13 -36 -21 -3 -8 -10 -14 -16 -14 -6 0 -20 -9
-32 -20 -11 -11 -34 -33 -52 -49 l-32 -28 22 -31 c12 -18 27 -32 34 -32 6 0
13 -4 15 -9 2 -5 10 -11 18 -13 8 -2 20 -10 27 -19 18 -24 74 -48 106 -44 15
2 25 -1 21 -6 -3 -5 1 -9 9 -9 12 0 27 -19 27 -33 0 -1 -23 -3 -52 -4 -62 -3
-122 -30 -174 -78 -22 -19 -42 -35 -45 -35 -6 0 -52 -88 -56 -110 -7 -29 -9
-35 -15 -45 -3 -5 -9 -25 -13 -42 -5 -27 -4 -32 8 -27 8 3 18 0 22 -5 3 -6 10
-9 15 -6 5 3 19 1 30 -5 17 -9 42 -11 113 -9 9 0 17 5 17 10 0 6 5 7 10 4 6
-4 33 1 60 10 27 9 54 14 60 10 5 -3 10 -1 10 4 0 6 6 11 13 11 6 0 25 7 41
15 33 18 46 12 28 -13 -23 -33 -48 -87 -47 -102 2 -36 19 -85 34 -102 10 -10
35 -27 56 -37 38 -18 40 -21 66 -122 15 -57 25 -112 22 -123 -3 -12 -1 -16 6
-12 6 4 11 0 11 -8 0 -14 12 -20 33 -17 4 0 7 -5 7 -12 0 -8 -10 -13 -21 -13
-12 1 -24 -5 -27 -13 -3 -8 0 -11 7 -7 16 10 14 -9 -3 -23 -11 -10 -10 -24 6
-91 11 -44 24 -80 29 -80 5 0 9 -8 9 -17 0 -10 6 -29 13 -43 7 -14 19 -47 27
-74 7 -28 24 -71 36 -97 13 -26 35 -92 48 -147 14 -55 35 -117 45 -138 11 -22
33 -88 50 -147 29 -108 29 -109 7 -102 -11 3 -55 11 -96 16 -41 6 -102 14
-135 19 -33 5 -94 13 -135 19 -41 5 -93 15 -115 21 -22 6 -74 16 -115 21 -150
20 -276 38 -420 59 -148 22 -198 23 -224 6 -15 -9 -28 -29 -32 -50 -6 -33 -7
-34 -32 -25 -44 17 -102 20 -102 5 0 -7 -9 -21 -20 -31 -21 -19 -46 -16 -115
15 -22 10 -72 28 -112 41 -83 26 -112 20 -135 -28 -10 -20 -22 -29 -47 -33
-31 -5 -35 -10 -48 -55 -22 -77 -47 -96 -139 -107 -44 -5 -106 -13 -139 -18
-33 -5 -96 -14 -140 -20 -124 -18 -214 -30 -285 -41 -36 -5 -110 -13 -165 -18
-55 -5 -131 -17 -170 -28 l-70 -19 -3 -94 c-2 -55 1 -97 8 -104 5 -5 10 -29
10 -52 0 -24 5 -46 10 -49 6 -3 10 -17 10 -30 0 -13 5 -27 10 -30 6 -3 10 -30
10 -60 l0 -53 -47 -10 c-27 -6 -82 -16 -123 -22 -118 -18 -173 -31 -196 -45
-24 -16 -38 -68 -24 -93 5 -9 19 -69 31 -132 12 -63 26 -119 30 -124 5 -6 9
-29 9 -52 0 -24 5 -46 10 -49 6 -3 10 -35 10 -70 0 -35 5 -67 10 -70 6 -3 10
-26 10 -50 0 -24 4 -47 10 -50 5 -3 10 -17 10 -30 0 -13 4 -27 10 -30 6 -3 10
-21 10 -39 0 -17 4 -36 9 -42 5 -5 11 -22 13 -39 3 -27 7 -30 41 -33 36 -3 37
-4 37 -44 0 -22 4 -57 9 -77 5 -20 15 -63 21 -96 6 -33 15 -78 20 -100 8 -37
18 -89 42 -210 5 -27 18 -79 28 -115 20 -75 33 -130 50 -215 17 -86 32 -158
36 -172 5 -18 56 -16 137 4 91 22 105 41 88 121 -7 31 -17 80 -23 107 -5 28
-18 82 -28 120 -10 39 -24 97 -30 130 -6 33 -16 76 -21 96 -5 20 -9 58 -9 84
0 26 -4 64 -9 84 -5 20 -15 63 -21 96 -10 54 -35 151 -47 181 -4 12 49 44 72
44 18 0 45 -34 45 -58 0 -11 5 -24 10 -27 6 -3 10 -21 10 -40 0 -19 5 -37 10
-40 6 -3 10 -17 10 -30 0 -13 4 -26 9 -30 5 -3 12 -18 16 -34 7 -33 26 -41 97
-41 29 0 61 8 83 20 23 13 54 20 90 20 36 0 67 7 91 20 27 16 50 20 92 18 57
-3 70 -14 98 -78 4 -8 15 -33 25 -55 9 -22 27 -49 39 -60 12 -11 30 -39 41
-63 13 -27 30 -47 47 -53 15 -6 35 -15 44 -20 10 -5 40 -9 66 -9 38 0 53 -5
70 -23 12 -13 22 -28 22 -34 0 -6 7 -16 15 -23 9 -7 28 -39 43 -72 25 -53 30
-59 65 -64 20 -4 40 -11 43 -15 3 -5 16 -9 29 -9 13 0 27 -4 30 -10 3 -5 21
-10 40 -10 19 0 37 -4 40 -10 3 -5 21 -10 40 -10 19 0 37 -4 40 -10 3 -5 21
-10 40 -10 19 0 37 -4 40 -10 3 -5 21 -10 40 -10 19 0 37 -4 40 -10 3 -5 19
-10 36 -10 43 0 119 -48 119 -75 0 -7 9 -20 20 -30 11 -10 20 -23 20 -30 0 -6
14 -24 30 -40 17 -16 30 -34 30 -40 0 -7 9 -20 20 -30 11 -10 20 -23 20 -30 0
-6 12 -22 26 -36 l26 -24 295 -5 296 -5 17 -30 c9 -16 23 -47 30 -69 7 -21 25
-62 40 -91 15 -29 33 -70 40 -91 7 -22 21 -52 30 -69 9 -16 22 -47 29 -68 7
-21 30 -71 50 -111 21 -40 43 -88 50 -107 32 -92 39 -99 114 -99 l37 0 0 -68
c0 -148 77 -222 232 -222 89 0 80 13 98 -135 6 -49 17 -103 25 -120 7 -16 21
-93 30 -170 9 -77 20 -149 25 -160 13 -29 63 -463 56 -481 -3 -9 -3 -26 0 -39
7 -30 95 -52 194 -49 81 3 123 18 136 48 5 11 20 24 34 27 75 21 83 26 106 64
13 22 29 51 35 65 13 29 13 141 0 149 -4 3 -11 17 -15 31 -4 14 -11 34 -16 45
-9 20 -69 522 -67 560 0 11 -3 53 -7 93 -6 59 -5 72 7 72 15 0 52 -67 63 -115
4 -16 10 -32 14 -35 11 -9 38 -73 45 -110 4 -19 18 -53 30 -75 13 -22 26 -56
30 -75 4 -19 18 -55 31 -80 13 -25 24 -50 24 -57 0 -14 32 -85 41 -93 3 -3 9
-18 13 -35 3 -16 17 -52 30 -80 14 -27 30 -65 36 -82 7 -18 15 -31 19 -29 4 3
24 -65 46 -150 21 -85 42 -157 46 -159 8 -6 35 -120 44 -186 l6 -45 42 -1 c23
0 51 5 62 13 11 8 27 14 37 14 10 0 18 5 18 10 0 6 8 10 18 10 9 0 29 6 44 14
15 8 40 17 57 21 17 4 31 10 31 15 0 4 17 11 38 15 40 7 112 43 124 61 4 6 21
17 38 24 16 7 30 15 30 19 0 3 10 17 23 31 12 14 22 34 22 45 -1 40 -17 105
-25 100 -9 -6 -60 66 -60 86 0 7 -9 29 -20 47 -11 18 -29 64 -39 101 -11 38
-23 77 -29 87 -5 11 -15 43 -22 72 -6 28 -15 52 -19 52 -4 0 -18 44 -30 98
-13 53 -27 102 -31 107 -4 6 -18 46 -30 90 -12 44 -26 85 -30 90 -4 6 -15 42
-24 80 -9 39 -19 78 -22 88 -5 16 314 17 6599 17 l6605 0 -19 -77 c-11 -43
-23 -85 -28 -94 -5 -8 -19 -51 -31 -95 -12 -43 -26 -83 -30 -89 -4 -5 -18 -54
-31 -107 -12 -54 -26 -98 -30 -98 -4 0 -13 -24 -19 -52 -7 -29 -17 -61 -22
-72 -6 -10 -18 -49 -29 -87 -10 -37 -28 -83 -39 -101 -11 -18 -20 -40 -20 -47
0 -20 -51 -92 -60 -86 -8 5 -24 -60 -25 -100 0 -11 10 -31 23 -45 12 -14 22
-28 22 -31 0 -4 14 -12 30 -19 17 -7 34 -18 38 -24 12 -18 84 -54 125 -61 20
-4 37 -11 37 -15 0 -5 14 -11 31 -15 17 -4 42 -13 57 -21 15 -8 35 -14 45 -14
9 0 17 -4 17 -10 0 -5 8 -10 18 -10 10 0 26 -6 37 -14 11 -8 39 -13 62 -13
l42 1 6 45 c9 66 36 180 44 186 4 2 25 74 46 159 22 85 42 153 46 150 4 -2 12
11 19 29 6 17 22 55 36 82 13 28 27 64 30 80 4 17 10 32 13 35 9 8 41 79 41
93 0 7 11 32 24 57 13 25 27 61 31 80 4 19 17 53 30 75 12 22 26 56 30 75 8
37 34 102 46 110 3 3 10 20 14 39 12 56 39 96 65 96 21 0 23 -4 22 -55 0 -30
-2 -82 -5 -115 -2 -33 0 -66 6 -72 5 -7 7 -25 3 -40 -3 -16 -8 -108 -10 -205
-3 -98 -7 -181 -10 -186 -3 -4 -8 -30 -11 -58 -6 -47 -6 -49 22 -61 33 -13 62
-22 94 -28 12 -3 25 -9 28 -14 12 -19 171 -1 171 19 0 13 69 33 91 27 24 -6
55 21 70 59 5 16 15 24 23 21 13 -5 24 10 42 58 4 11 7 22 7 25 -1 3 -4 38 -7
79 -3 40 -9 78 -13 84 -9 15 -11 117 -2 123 4 2 6 42 4 89 -2 47 0 87 5 90 4
2 5 41 3 85 l-3 80 173 0 c165 0 176 1 223 25 72 36 97 84 102 199 l5 89 208
-6 c134 -5 210 -3 214 3 3 6 46 10 95 10 80 0 91 2 118 25 17 14 33 39 37 55
3 16 13 34 21 41 8 6 14 17 14 23 0 7 6 18 13 24 6 7 12 16 13 20 2 19 24 59
38 71 9 7 16 19 16 26 0 6 9 20 20 30 11 10 20 22 20 28 0 5 6 23 14 40 18 39
24 100 36 372 6 116 14 302 20 415 5 113 14 257 20 320 10 105 20 301 36 659
4 111 9 139 25 162 10 15 19 43 19 62 0 31 3 36 28 39 l27 3 3 104 c2 63 -1
108 -8 115 -5 5 -10 50 -10 100 0 71 4 93 18 109 18 20 16 0 40 529 6 151 9
169 27 182 11 9 33 16 48 16 15 0 37 9 49 20 12 11 32 20 44 20 13 0 26 5 29
10 3 6 17 10 30 10 13 0 27 5 30 10 3 6 17 10 30 10 13 0 27 5 30 10 3 6 17
10 30 10 13 0 27 5 30 10 3 6 17 10 30 10 13 0 27 5 30 10 3 6 17 10 30 10 13
0 27 5 30 10 3 6 17 10 30 10 13 0 27 5 30 10 3 6 21 10 40 10 19 0 37 5 40
10 3 6 15 10 25 10 11 0 35 9 55 20 20 11 49 20 65 20 16 0 32 5 35 10 3 6 17
10 30 10 13 0 27 5 30 10 3 6 18 10 33 10 35 0 52 -36 52 -107 l0 -53 60 0 60
0 4 -362 c3 -200 8 -403 11 -452 4 -58 3 -92 -4 -99 -6 -6 -11 -30 -11 -53 0
-24 -4 -46 -10 -49 -5 -3 -10 -30 -10 -60 0 -30 -4 -57 -10 -60 -5 -3 -10 -26
-10 -50 0 -24 -4 -47 -10 -50 -5 -3 -10 -17 -10 -30 0 -13 -4 -27 -10 -30 -5
-3 -10 -26 -10 -50 0 -24 -4 -47 -10 -50 -13 -8 -13 -211 0 -235 7 -13 7 -21
0 -25 -5 -3 -10 -17 -10 -29 0 -13 -7 -29 -15 -36 -8 -7 -18 -30 -21 -52 -4
-21 -11 -41 -15 -44 -5 -3 -9 -16 -9 -29 0 -13 -4 -27 -10 -30 -5 -3 -10 -17
-10 -29 0 -13 -6 -29 -14 -35 -8 -7 -18 -26 -21 -42 -4 -16 -11 -31 -16 -34
-5 -4 -9 -21 -9 -40 0 -19 -4 -37 -10 -40 -5 -3 -10 -17 -10 -29 0 -13 -6 -29
-14 -35 -8 -7 -18 -26 -21 -42 -4 -16 -11 -31 -16 -34 -5 -4 -9 -21 -9 -40 0
-19 -4 -37 -10 -40 -5 -3 -10 -14 -10 -24 0 -37 -33 -80 -160 -206 -71 -71
-130 -134 -130 -140 0 -5 -45 -58 -100 -117 -55 -58 -100 -110 -100 -116 0 -5
-9 -17 -20 -27 -11 -10 -23 -34 -26 -54 -4 -20 -11 -41 -16 -48 -20 -25 4 -70
68 -134 l65 -64 88 0 c81 0 92 2 115 24 14 14 26 29 26 35 0 6 68 79 150 161
83 82 150 154 150 160 0 6 33 43 73 83 l74 73 37 -20 c49 -28 97 -27 124 2 12
13 22 33 22 45 0 11 5 24 10 27 6 3 10 17 10 30 0 13 5 27 10 30 6 3 10 17 10
30 0 13 5 27 10 30 6 3 10 21 10 40 0 19 5 37 10 40 6 3 10 17 10 30 0 13 5
27 10 30 6 3 10 14 10 25 0 10 14 44 30 75 17 31 30 65 30 75 0 11 5 22 10 25
6 3 10 17 10 30 0 13 5 27 10 30 6 3 10 21 10 40 0 19 5 37 10 40 6 3 10 17
10 30 0 13 5 27 10 30 6 3 10 17 10 30 0 13 5 27 10 30 6 3 10 17 10 29 0 13
6 29 14 35 8 7 18 26 21 42 4 16 11 31 16 34 5 4 9 19 9 36 0 27 3 29 38 29
56 0 82 31 82 98 0 28 5 54 10 57 6 3 10 30 10 60 0 30 5 57 10 60 6 3 10 30
10 60 0 30 5 57 10 60 6 3 10 30 10 60 0 30 5 57 10 60 6 3 10 30 10 60 0 30
5 57 10 60 6 3 10 30 10 60 0 30 5 57 10 60 6 3 10 30 10 60 0 30 5 57 10 60
6 3 10 25 10 49 0 41 21 76 47 76 5 0 19 10 31 23 20 21 22 34 22 122 l0 100
118 -118 c64 -64 122 -117 127 -117 6 0 91 -81 190 -180 99 -99 184 -180 190
-180 6 0 73 -63 150 -140 182 -183 169 -181 323 -27 61 62 112 117 112 122 0
5 23 33 51 61 47 47 50 54 39 75 -15 30 -231 249 -245 249 -6 0 -69 59 -140
130 -71 72 -134 130 -140 130 -6 0 -73 63 -150 140 -77 77 -144 140 -150 140
-13 0 -185 172 -185 185 0 6 -18 29 -40 50 -22 21 -40 44 -40 50 0 6 -18 29
-40 50 -22 21 -40 43 -40 49 0 5 -10 20 -21 32 -19 21 -20 27 -9 53 6 16 23
44 36 62 24 34 32 93 14 104 -5 3 -10 26 -10 50 0 24 -4 47 -10 50 -5 3 -10
26 -10 50 0 24 -4 47 -10 50 -5 3 -10 39 -10 80 0 41 -4 77 -10 80 -5 3 -10
26 -10 50 0 24 -4 47 -10 50 -5 3 -10 26 -10 50 0 24 -4 47 -10 50 -5 3 -10
17 -10 30 0 13 -4 27 -10 30 -5 3 -10 26 -10 50 0 24 -4 47 -10 50 -5 3 -10
26 -10 50 0 24 -4 47 -10 50 -5 3 -10 26 -10 50 0 24 -4 47 -10 50 -5 3 -10
39 -10 80 0 41 -4 77 -10 80 -5 3 -10 26 -10 50 0 24 -4 47 -10 50 -5 3 -10
15 -10 26 0 10 -6 28 -12 39 -10 16 -10 24 0 40 6 11 12 33 12 49 0 17 5 33
10 36 6 3 10 17 10 30 0 13 5 27 10 30 6 3 10 19 10 35 0 16 9 45 20 65 11 20
20 44 20 55 0 10 5 22 10 25 6 3 10 21 10 40 0 19 5 37 10 40 18 11 12 75 -7
81 -10 3 -26 10 -35 15 -10 5 -26 9 -36 9 -10 0 -30 13 -45 28 l-27 28 0 180
c0 176 -1 181 -23 202 -23 22 -26 22 -425 22 -256 0 -403 4 -407 10 -3 6 -31
10 -61 10 -30 0 -54 5 -54 10 0 14 -55 70 -69 70 -6 0 -11 5 -11 10 0 6 -6 10
-13 10 -7 0 -22 8 -33 18 -29 26 -78 51 -100 52 -10 0 -41 2 -69 4 -27 2 -54
0 -60 -3 -5 -3 -12 -6 -15 -7 -3 0 -18 -6 -34 -13 -16 -6 -33 -8 -37 -4 -5 5
2 39 15 77 34 97 23 213 -22 231 -37 15 -60 15 -66 -1 -3 -8 -10 -13 -14 -10
-5 3 -25 -10 -45 -28 -21 -19 -37 -31 -37 -27 -1 3 -7 -5 -15 -19 -9 -16 -15
-20 -16 -10 -5 60 -4 87 4 98 8 10 3 12 -24 7 -43 -7 -77 -23 -110 -52 -24
-22 -27 -22 -56 -8 -17 9 -36 22 -43 30 -7 8 -18 15 -25 15 -6 0 -20 9 -30 20
-10 11 -22 20 -28 20 -5 0 -21 10 -36 23 l-26 22 35 138 c20 76 38 135 42 132
3 -3 9 11 13 32 3 21 13 52 21 68 7 17 41 136 74 265 33 129 67 249 74 265 8
17 17 47 21 67 4 21 10 36 14 33 4 -2 18 41 31 95 28 117 32 126 56 115 28
-12 38 -12 53 -1 8 6 17 11 20 11 3 0 7 9 8 20 2 11 13 55 25 98 l22 77 34 -3
c27 -2 39 -9 51 -32 31 -56 46 -75 58 -75 7 0 13 -4 13 -9 0 -11 85 -35 130
-36 19 0 41 4 49 10 8 5 15 9 15 7 1 -4 34 6 61 19 12 6 29 11 39 13 10 1 25
11 32 21 8 10 14 15 14 10 0 -5 9 1 20 13 11 12 20 26 20 32 0 5 4 10 8 10 22
0 2 43 -29 64 -44 30 -62 35 -138 40 -70 4 -76 8 -102 65 -14 32 -15 41 -5 41
8 0 17 7 20 16 3 8 10 13 14 10 5 -3 14 4 22 14 8 10 17 17 22 14 4 -3 8 2 8
10 0 9 11 23 25 32 14 9 25 22 25 29 0 6 9 20 20 30 12 10 19 24 16 31 -3 7 1
17 7 23 32 26 -1 176 -48 217 -14 12 -22 25 -17 28 10 6 95 -20 127 -39 11 -7
41 -18 67 -25 26 -7 49 -18 52 -26 5 -14 -18 -44 -34 -44 -12 0 -80 -68 -80
-80 0 -4 -5 -10 -12 -12 -14 -5 -13 -71 2 -99 9 -16 14 -18 25 -9 10 9 19 8
37 -3 13 -7 37 -12 53 -11 17 2 56 6 89 9 72 6 76 9 72 43 -4 40 -23 70 -48
78 -24 7 -58 39 -84 79 -14 21 -14 26 1 52 9 15 14 21 12 12 -9 -27 31 -51 89
-54 29 -1 64 -9 76 -17 13 -8 50 -23 83 -33 33 -10 63 -22 66 -28 4 -5 19 -9
33 -9 15 0 43 -9 63 -19 21 -11 44 -19 53 -18 8 0 -4 7 -28 16 -23 8 -40 19
-36 24 3 5 9 7 14 4 14 -8 75 33 90 60 7 13 17 22 22 19 4 -3 8 4 8 15 0 12 4
21 9 21 5 0 13 9 16 20 4 11 11 17 17 14 7 -5 9 -1 5 9 -3 9 4 26 18 41 13 14
22 26 19 26 -3 0 4 13 15 29 12 16 21 34 21 39 0 6 6 17 13 24 15 16 45 108
51 161 l5 39 -37 -6 c-51 -7 -65 -10 -79 -19 -7 -5 -13 -6 -13 -2 0 3 -22 -7
-50 -21 -27 -14 -50 -31 -50 -37 0 -6 -3 -7 -6 -4 -4 4 -24 -7 -44 -23 -21
-17 -43 -30 -49 -30 -6 0 -11 -6 -11 -12 0 -7 -11 -26 -25 -42 -14 -16 -25
-33 -25 -38 0 -4 -5 -7 -12 -6 -7 2 -19 -19 -28 -45 -8 -27 -18 -45 -22 -42
-9 9 -23 -75 -19 -112 0 -6 9 -20 19 -29 15 -16 15 -17 0 -12 -9 4 -33 10 -52
14 -20 3 -36 10 -36 14 0 4 -11 11 -25 14 -30 8 -33 22 -6 31 11 3 23 14 26
24 3 10 14 29 25 41 11 13 20 36 20 51 0 15 5 31 11 34 6 5 8 22 4 47 -6 36
-4 43 21 65 15 13 29 31 30 41 4 28 16 135 19 157 1 11 -6 36 -16 55 -10 19
-20 51 -24 71 -3 20 -16 52 -28 70 -25 37 -94 88 -117 87 -52 -3 -120 4 -120
12 0 6 3 9 8 9 4 -1 10 0 15 1 4 1 10 3 15 4 4 1 27 12 52 23 25 12 50 22 55
23 6 1 16 6 23 12 6 6 12 7 12 3 0 -5 8 -2 18 6 64 52 107 37 68 -24 -19 -29
-21 -52 -12 -107 18 -101 95 -167 184 -155 75 9 81 11 88 18 4 4 16 7 27 7 12
0 23 11 30 30 9 23 21 33 50 41 43 11 97 60 97 87 0 19 15 20 95 7 73 -13 123
-7 135 16 6 10 19 15 37 13 36 -4 78 28 89 68 8 27 6 36 -13 56 -32 35 -30 54
5 45 48 -12 165 -3 201 16 12 7 26 9 32 5 6 -3 13 3 16 15 3 12 11 21 18 21 8
0 20 6 27 13 7 6 21 13 31 15 30 5 67 44 67 71 0 13 -8 33 -17 44 -17 19 -17
19 32 12 28 -4 52 -8 55 -8 10 -2 85 26 98 36 6 5 12 6 12 2 0 -4 6 -3 13 3 6
6 15 10 19 9 3 -1 18 8 31 20 30 26 69 48 80 45 4 -1 7 5 7 13 0 8 4 15 9 15
13 0 1 53 -17 73 -21 24 -75 57 -104 63 -75 16 -108 21 -113 18 -3 -2 -2 -1 1
3 3 5 15 8 27 8 12 1 27 3 32 7 6 3 27 11 48 17 20 7 37 17 37 22 0 6 5 7 10
4 6 -3 10 -2 10 4 0 5 20 29 45 52 25 23 45 47 45 52 0 5 8 17 18 26 9 9 23
25 30 36 38 60 49 74 55 68 4 -3 7 1 7 9 0 8 9 27 20 41 25 31 25 41 3 32 -10
-4 -29 -9 -43 -10 -30 -3 -112 -14 -160 -22 -19 -3 -39 -8 -45 -11 -5 -4 -21
-7 -35 -8 -14 -1 -25 -2 -25 -3 0 -2 -8 -4 -17 -6 -24 -4 -80 -40 -103 -65
-10 -11 -22 -20 -27 -20 -15 0 -8 26 12 40 11 8 20 21 20 30 0 9 6 24 13 35
17 27 34 83 36 122 1 30 -1 31 -33 29 -18 -1 -40 -7 -48 -14 -8 -6 -17 -10
-20 -7 -3 3 -11 -1 -18 -10 -7 -8 -23 -15 -35 -15 -13 0 -25 -7 -29 -15 -3 -8
-11 -15 -18 -15 -7 0 -27 -12 -43 -27 -16 -16 -33 -27 -37 -26 -4 2 -15 -11
-25 -27 -9 -17 -21 -30 -25 -30 -4 0 -8 -7 -8 -15 0 -8 -4 -15 -10 -15 -5 0
-10 -7 -10 -15 0 -8 -5 -15 -11 -15 -5 0 -15 -13 -20 -30 -6 -16 -15 -30 -19
-30 -4 0 -13 -22 -20 -50 -7 -27 -16 -48 -20 -45 -5 3 -1 -9 7 -27 17 -35 46
-68 60 -68 13 0 34 -40 28 -50 -4 -6 -12 -10 -19 -10 -8 0 -20 -8 -27 -17 -13
-16 -12 -17 4 -4 9 7 17 10 17 6 0 -4 6 -3 13 3 18 15 32 2 35 -32 2 -27 30
-72 68 -110 14 -15 14 -17 -1 -22 -8 -4 -23 0 -33 9 -30 26 -85 37 -168 34
-64 -3 -90 -9 -125 -28 -36 -21 -47 -23 -57 -13 -16 17 -15 24 2 24 8 0 17 4
20 9 3 4 -6 6 -19 3 -14 -2 -25 -2 -25 2 0 12 35 46 48 46 7 0 15 7 18 15 4 8
10 13 14 10 4 -2 16 7 26 21 11 15 24 31 29 38 42 48 96 242 89 323 -4 48 -61
203 -74 203 -5 0 -7 6 -4 14 9 23 -18 31 -33 11 -7 -11 -13 -15 -13 -10 0 5
-14 -7 -30 -26 -17 -19 -38 -43 -48 -54 -11 -11 -30 -38 -44 -60 -14 -22 -33
-46 -42 -54 -9 -7 -16 -20 -16 -27 0 -8 -3 -14 -8 -14 -11 0 -42 -109 -44
-155 -5 -107 32 -206 89 -244 43 -28 40 -49 -11 -77 -21 -12 -33 -24 -28 -28
6 -3 14 -1 17 5 11 17 49 27 66 18 13 -6 16 -21 13 -61 -1 -29 2 -60 7 -70 12
-23 5 -22 -62 0 -51 18 -63 18 -99 5 -8 -4 -17 -7 -20 -8 -3 -1 -17 -7 -32
-13 -40 -17 -106 -20 -124 -7 -15 10 -13 14 11 33 24 19 25 26 5 24 -3 0 -7 8
-7 19 -1 10 2 19 8 19 5 0 9 7 9 15 0 8 5 15 10 15 6 0 10 7 10 15 0 8 5 15
10 15 6 0 10 5 10 10 0 6 11 21 24 33 13 12 27 33 31 47 4 14 12 28 16 31 5 3
11 43 13 90 4 64 1 93 -12 121 -9 21 -20 38 -25 38 -4 0 -24 11 -45 24 -20 13
-46 23 -57 22 -27 -3 -75 -27 -75 -38 0 -5 -9 -18 -19 -30 -20 -21 -37 -90
-27 -107 7 -10 -16 -36 -36 -43 -22 -8 -13 -129 13 -175 29 -51 83 -103 109
-103 15 0 20 -6 20 -27 0 -14 -3 -23 -6 -20 -4 4 -15 -3 -25 -14 -9 -11 -20
-20 -23 -20 -3 1 -33 -12 -66 -29 -33 -17 -62 -29 -64 -28 -2 2 -12 -4 -22
-12 -36 -29 -85 -52 -100 -46 -20 8 -17 33 6 56 11 11 20 24 20 28 0 5 11 15
25 22 13 7 27 21 31 32 3 10 10 18 15 18 14 0 11 97 -3 122 -14 24 -45 58 -53
58 -3 0 -14 9 -25 20 -11 11 -27 20 -35 20 -8 0 -15 4 -15 8 0 5 -26 8 -58 7
-60 -2 -102 -20 -102 -43 0 -7 -7 -20 -15 -28 -8 -9 -15 -25 -15 -37 0 -42 33
-137 56 -162 13 -15 24 -30 24 -35 0 -17 67 -60 92 -60 29 0 39 -16 27 -45 -4
-11 -8 -16 -8 -11 -1 5 -8 2 -17 -5 -9 -7 -25 -15 -37 -16 -12 -2 -30 -11 -40
-21 -11 -9 -21 -16 -23 -14 -2 1 -17 -4 -33 -12 -16 -9 -31 -13 -33 -10 -3 2
-11 -2 -18 -11 -7 -8 -18 -15 -24 -15 -6 0 -23 -6 -38 -14 -22 -12 -29 -12
-38 -1 -11 14 6 68 20 60 8 -5 23 24 38 70 9 31 -3 93 -30 145 -24 46 -35 52
-81 46 -23 -4 -49 -7 -57 -8 -8 0 -18 -5 -21 -11 -4 -5 -25 -11 -47 -12 -23
-1 -47 -7 -55 -13 -8 -7 -17 -9 -20 -6 -8 8 -39 -12 -87 -54 -19 -17 -36 -29
-38 -28 -2 2 8 23 21 47 13 24 46 130 73 236 43 171 47 196 38 233 -10 36 -9
42 7 51 11 5 19 17 19 25 0 9 9 29 21 45 32 45 16 74 -38 72 -7 -1 -13 3 -13
7 0 5 -22 14 -50 21 -27 7 -50 16 -50 21 0 4 4 8 9 8 5 0 22 5 38 11 15 6 30
10 32 9 2 -1 8 5 13 14 5 9 13 14 18 11 4 -3 18 11 30 30 12 19 26 35 31 35 5
0 9 5 9 10 0 6 11 27 24 48 13 21 27 52 31 70 3 18 10 30 15 27 4 -3 10 2 14
10 6 18 -43 55 -76 56 -12 0 -17 3 -10 6 6 2 12 10 12 16 0 7 17 20 38 30 71
33 133 107 112 132 -17 20 -91 57 -105 52 -6 -3 -16 3 -23 13 -11 19 -95 44
-149 45 -28 0 -33 4 -33 24 0 13 3 22 6 18 4 -3 15 4 25 16 10 12 18 19 19 15
0 -4 24 19 53 50 28 31 57 60 63 64 6 4 19 28 28 53 10 25 21 45 26 45 16 0
40 101 28 119 -14 22 -54 51 -81 58 -44 12 -132 9 -160 -5 -16 -8 -31 -12 -34
-9 -3 4 -29 -9 -57 -27 l-52 -33 -34 28 -34 29 19 57 c32 101 25 214 -20 301
-9 17 -21 32 -26 32 -5 0 -9 6 -9 14 0 14 -81 106 -93 106 -4 0 -16 9 -27 20
-27 27 -35 26 -67 -17z m-201 -1240 c22 -30 38 -40 82 -49 11 -3 21 -6 22 -7
3 -3 -16 -45 -47 -108 -50 -102 -40 -157 32 -181 43 -14 109 -8 109 10 0 4 14
16 30 25 38 23 70 14 70 -18 0 -13 4 -26 9 -29 5 -3 8 23 7 59 -1 35 2 61 7
58 4 -3 6 -11 3 -19 -3 -8 0 -11 10 -7 8 3 14 -1 14 -8 1 -18 35 -59 49 -59 6
0 11 -4 11 -9 0 -5 13 -12 30 -16 31 -7 51 -25 27 -25 -21 0 -106 -84 -121
-121 -9 -22 -11 -41 -5 -56 5 -13 4 -25 -1 -28 -6 -4 -10 4 -11 17 -1 13 -2
52 -4 88 -4 105 -5 110 -13 110 -8 0 -7 -66 2 -190 3 -30 5 -56 5 -57 1 -2 10
6 21 17 l21 21 28 -21 c16 -11 34 -20 40 -20 6 0 11 -4 11 -9 0 -5 -32 -7 -72
-5 -72 4 -86 11 -95 52 -15 62 -58 157 -85 186 -10 11 -18 23 -18 28 0 4 -7 8
-15 8 -22 0 -55 -37 -49 -55 4 -8 1 -15 -5 -15 -6 0 -11 -9 -11 -21 0 -11 -4
-17 -10 -14 -5 3 -11 -2 -12 -12 0 -10 -2 -22 -3 -28 -2 -5 -3 -16 -4 -24 0
-7 -7 -11 -15 -8 -8 3 -17 -1 -20 -9 -6 -15 29 -34 60 -34 8 0 14 -6 14 -13 0
-15 75 -38 87 -26 4 4 27 5 51 2 34 -5 40 -8 31 -19 -6 -8 -16 -11 -21 -8 -6
4 -43 6 -84 5 -48 -1 -74 2 -74 10 0 6 -6 9 -12 6 -19 -6 -87 30 -114 61 -19
22 -23 24 -24 10 0 -28 -2 -32 -19 -45 -26 -20 -29 -16 -29 45 0 31 -1 62 -2
67 -1 6 -2 34 -1 63 2 61 -7 64 -79 30 -25 -11 -51 -22 -58 -22 -7 -1 -17 -8
-22 -16 -18 -28 -10 -1 9 34 11 19 25 52 32 75 6 22 25 52 40 67 16 15 29 33
29 39 0 6 14 24 30 40 17 16 30 34 30 41 0 6 7 17 15 24 37 31 58 113 34 137
-7 7 -8 20 -5 30 7 17 8 17 21 -2 8 -11 24 -34 37 -52z m347 -25 c31 -33 46
-41 72 -41 33 0 33 -1 9 -11 -35 -15 -90 -66 -90 -83 0 -8 -4 -11 -10 -8 -5 3
-10 -2 -10 -11 0 -13 -3 -15 -11 -7 -11 11 -16 164 -5 182 9 14 -17 14 -31 0
-9 -9 -16 -8 -28 5 -15 15 -13 16 25 16 35 0 46 -6 79 -42z m-68 -12 c1 -6 3
-31 4 -56 1 -25 5 -80 9 -122 4 -43 3 -78 -2 -78 -18 0 -41 26 -45 50 -2 14
-10 39 -17 55 -7 17 -14 32 -15 35 -5 21 -42 87 -55 97 -8 7 -10 13 -4 13 6 0
21 9 33 19 18 16 27 17 56 8 19 -6 36 -15 36 -21z m-19261 -256 c0 -5 10 -12
22 -16 18 -5 20 -8 7 -18 -12 -9 -49 -75 -54 -96 -1 -3 -8 -18 -15 -35 -7 -16
-15 -41 -17 -55 -4 -24 -27 -50 -45 -50 -5 0 -6 33 -2 73 3 39 7 98 8 129 2
65 1 62 41 75 31 10 55 7 55 -7z m21453 -140 c-12 -10 -24 -28 -27 -38 -4 -10
-13 -19 -20 -19 -8 0 -12 6 -9 14 3 7 9 13 14 13 4 0 16 16 25 36 12 24 20 32
27 25 8 -8 5 -17 -10 -31z m-143 -179 c-14 -27 -14 -27 18 -27 91 -2 131 -12
84 -21 -9 -2 -26 -5 -37 -8 -11 -2 -38 -6 -60 -9 -22 -4 -44 -11 -49 -16 -14
-14 -26 -12 -26 4 0 8 -5 16 -11 18 -7 2 10 20 37 41 57 43 58 43 44 18z
m-23570 -99 c0 -7 6 -15 14 -18 20 -8 27 -31 10 -31 -7 0 -16 9 -20 19 -3 10
-15 27 -26 38 -11 10 -17 24 -13 30 8 13 34 -16 35 -38z m20743 -141 c9 -9 17
-21 17 -27 0 -7 7 -14 15 -18 19 -7 20 -36 1 -36 -8 0 -18 9 -21 20 -3 11 -13
20 -21 20 -8 0 -14 5 -14 10 0 6 -11 16 -25 22 -27 12 -32 37 -12 57 10 10 15
8 27 -11 8 -12 23 -29 33 -37z m-20537 -83 c3 -5 0 -8 -5 -8 -6 0 -11 -7 -11
-15 0 -17 -11 -20 -26 -5 -5 5 -27 12 -49 16 -22 3 -49 7 -60 9 -11 3 -28 6
-37 8 -47 9 -7 19 85 21 31 0 31 0 16 28 -9 17 -1 14 36 -13 26 -18 49 -37 51
-41z m20596 55 c15 -13 23 -15 37 -6 11 7 23 8 34 2 12 -7 15 -6 12 3 -3 8 2
14 13 15 14 1 19 -4 17 -20 -1 -12 -3 -24 -5 -27 -7 -16 5 -66 22 -97 l21 -35
-24 13 c-13 8 -27 18 -30 23 -9 12 -98 16 -126 5 -18 -6 -23 -5 -23 6 0 8 5
15 10 15 6 0 10 9 10 20 0 24 35 28 44 5 3 -8 10 -15 16 -15 7 0 5 9 -4 22 -9
12 -16 31 -16 42 0 11 -3 16 -7 13 -7 -8 -33 11 -33 24 0 14 12 11 32 -8z
m-953 -130 c-1 -10 1 -26 6 -36 4 -10 5 -20 2 -23 -9 -9 -46 15 -58 38 -10 19
-9 20 15 16 18 -4 26 -1 26 8 0 8 3 14 6 14 3 0 4 -8 3 -17z m884 -32 c-16
-10 -21 -35 -11 -55 8 -15 3 -25 -25 -50 -20 -17 -39 -44 -42 -59 -4 -15 -11
-27 -15 -27 -19 0 -33 -127 -19 -167 7 -20 14 -22 75 -18 37 2 69 7 73 12 9
12 31 15 31 4 0 -5 -8 -35 -17 -68 -15 -48 -21 -110 -13 -133 1 -3 3 -16 5
-30 6 -41 24 -80 40 -86 8 -4 15 -12 15 -19 0 -7 18 -15 41 -18 59 -8 78 -30
21 -24 -27 3 -46 -1 -53 -9 -6 -8 -15 -11 -21 -8 -5 3 -15 0 -23 -6 -8 -7 -15
-9 -15 -5 0 4 -7 2 -15 -5 -8 -7 -15 -9 -15 -4 -1 5 -9 -1 -19 -13 -10 -12
-21 -19 -25 -16 -5 6 -10 -22 -9 -54 1 -7 -8 -13 -18 -13 -12 0 -19 -7 -19
-20 0 -11 1 -22 3 -23 1 -2 -3 -10 -9 -18 -7 -8 -10 -36 -7 -69 2 -30 5 -61 5
-67 1 -8 19 -14 47 -15 25 0 60 -2 76 -3 17 -1 45 5 62 14 18 8 35 12 38 9 7
-7 -61 -274 -76 -301 -12 -21 2 -43 36 -58 22 -10 57 -31 65 -39 3 -3 44 -24
91 -47 48 -23 90 -47 94 -53 9 -15 -82 -7 -155 13 -30 9 -74 21 -97 27 -26 6
-43 17 -43 25 0 8 5 15 10 15 6 0 10 4 10 9 0 4 -11 6 -25 3 -16 -3 -25 -11
-25 -23 0 -11 -4 -19 -10 -19 -5 0 -10 -9 -10 -20 0 -11 -4 -20 -9 -20 -4 0
-13 -15 -19 -32 l-11 -33 5 32 c8 46 -7 46 -46 -3 -19 -23 -40 -43 -46 -43 -7
-1 -15 -8 -18 -17 -3 -8 -10 -12 -16 -9 -6 3 -13 -2 -17 -12 -6 -16 -51 -63
-59 -63 -2 0 -4 9 -4 21 0 13 4 18 12 13 8 -5 9 5 4 36 -8 51 -13 60 -31 60
-12 0 -14 19 -14 92 1 51 5 103 10 116 8 21 21 146 22 220 0 27 2 30 10 16 6
-10 6 -29 0 -48 -5 -17 -7 -39 -5 -50 4 -17 10 -18 60 -12 32 4 65 7 74 7 27
0 31 17 6 25 -22 6 -58 37 -58 49 0 3 -16 21 -36 39 -37 34 -43 60 -31 136 4
19 9 55 11 78 4 31 13 50 31 64 14 11 25 26 25 34 0 8 6 14 14 14 8 0 17 7 20
16 3 9 12 14 20 11 8 -3 17 -3 21 1 4 4 10 7 13 7 22 2 86 42 90 57 2 10 13
18 23 18 18 0 18 1 2 19 -29 32 -38 44 -62 86 -12 23 -34 46 -49 53 -15 6 -40
23 -57 38 -16 14 -36 29 -43 33 -12 7 -13 23 -11 141 1 14 5 30 9 35 5 6 9 26
9 45 0 83 8 111 39 143 17 18 36 45 41 60 6 16 15 26 19 23 4 -3 17 11 27 31
11 19 21 30 23 23 3 -7 0 -15 -5 -19z m2093 2 c4 -10 6 -22 4 -28 -12 -45 12
-123 50 -163 12 -13 18 -27 14 -32 -15 -14 -79 -16 -70 -2 2 4 2 12 -2 18 -10
14 -76 44 -99 44 -10 0 -46 9 -81 20 -58 18 -65 19 -87 4 -14 -9 -22 -20 -19
-25 3 -5 1 -9 -4 -9 -6 0 -12 6 -15 13 -5 13 15 31 38 36 6 1 17 8 25 14 8 7
33 21 55 32 22 10 48 26 58 34 9 8 17 11 17 8 0 -4 21 7 48 23 57 34 58 35 68
13z m-1723 -14 c-8 -30 -23 -33 -44 -10 -25 27 -25 29 15 29 28 0 33 -3 29
-19z m-47 -21 c24 -19 29 -29 26 -60 -2 -28 -8 -38 -20 -38 -25 -1 -48 -22
-49 -47 -1 -13 2 -23 6 -23 5 0 11 -9 14 -20 3 -11 2 -20 -2 -20 -7 0 -24 -12
-68 -50 -7 -6 -13 -9 -14 -8 -7 27 -5 40 7 45 8 3 14 12 14 19 0 8 6 17 13 20
8 3 12 16 9 33 -2 16 2 39 8 52 10 17 10 24 1 27 -11 4 -6 42 11 75 11 21 8
21 44 -5z m-18251 -76 c-3 -9 0 -10 12 -3 11 6 23 5 34 -2 14 -9 22 -7 39 8
11 10 23 15 26 12 9 -9 -16 -38 -27 -31 -5 3 -9 -3 -9 -13 0 -10 -7 -29 -16
-41 -9 -13 -11 -22 -4 -22 6 0 13 7 16 15 9 23 44 19 44 -5 0 -11 5 -20 10
-20 6 0 10 -7 10 -15 0 -11 -5 -12 -23 -6 -28 11 -117 7 -126 -5 -3 -5 -17
-15 -30 -23 l-24 -13 21 35 c17 31 29 81 22 97 -2 3 -4 15 -5 27 -2 16 3 21
17 20 11 -1 16 -7 13 -15z m19358 -131 c19 -19 16 -40 -6 -47 -12 -4 -24 -6
-25 -5 -2 1 -10 -6 -17 -16 -7 -10 -17 -15 -21 -11 -4 4 -13 3 -21 -3 -7 -6
-13 -8 -13 -4 0 4 -6 2 -14 -4 -8 -6 -18 -11 -22 -10 -5 2 -20 -2 -34 -8 -29
-13 -60 -25 -75 -29 -5 -1 -18 -5 -27 -9 -13 -5 -18 -2 -18 10 0 11 5 15 14
12 8 -3 17 -3 21 1 4 4 10 7 13 7 12 0 102 68 102 77 0 4 4 8 9 8 6 0 22 11
37 25 27 26 74 29 97 6z m-19160 -64 c4 3 12 -7 19 -23 7 -16 22 -30 33 -32
25 -4 45 -29 45 -58 0 -12 6 -37 14 -56 8 -19 20 -75 26 -124 6 -49 12 -101
15 -116 4 -22 0 -28 -23 -33 -15 -3 -43 -19 -62 -35 -19 -17 -47 -36 -62 -42
-15 -7 -37 -30 -49 -53 -24 -42 -33 -54 -61 -86 -17 -18 -17 -19 1 -19 10 0
21 -8 23 -18 4 -15 68 -55 90 -57 3 0 9 -3 13 -7 4 -4 13 -4 21 -1 8 3 17 -2
20 -11 3 -9 12 -16 20 -16 8 0 14 -6 14 -14 0 -8 11 -23 25 -34 14 -11 25 -23
25 -26 0 -4 17 -24 39 -45 68 -66 78 -107 35 -136 -42 -27 -124 -100 -124
-110 0 -12 -36 -43 -58 -49 -22 -7 -21 -28 1 -25 10 2 70 -5 127 -16 8 -1 31
-8 50 -16 19 -7 38 -12 43 -11 16 5 29 -56 24 -119 -2 -36 0 -92 4 -125 5 -39
4 -61 -3 -65 -6 -4 -9 -18 -6 -33 3 -14 1 -23 -3 -20 -4 2 -16 -8 -26 -23 -21
-33 -33 -43 -54 -43 -19 0 -62 38 -72 63 -4 10 -11 15 -17 12 -6 -3 -13 1 -16
9 -3 9 -11 16 -18 16 -6 1 -23 16 -37 35 -20 27 -28 52 -33 107 -9 87 -35 198
-47 198 -5 0 -9 9 -9 20 0 11 -4 20 -10 20 -5 0 -10 8 -10 19 0 12 -9 20 -25
23 -14 3 -25 1 -25 -3 0 -5 5 -9 10 -9 6 0 10 -7 10 -15 0 -8 -17 -19 -42 -25
-24 -6 -68 -18 -98 -27 -73 -20 -164 -28 -155 -13 4 6 46 30 94 53 47 23 88
44 91 47 8 8 43 29 65 39 35 15 49 39 35 56 -7 8 -9 16 -4 16 26 3 64 6 105 7
28 1 46 7 47 15 0 6 3 37 5 67 3 33 0 61 -7 69 -6 8 -10 16 -8 18 1 1 2 12 2
23 0 13 -7 20 -19 20 -10 0 -19 6 -18 13 1 32 -4 60 -9 54 -4 -3 -15 4 -25 16
-10 12 -18 18 -19 13 0 -5 -7 -3 -15 4 -8 7 -15 9 -15 5 0 -4 -7 -2 -15 5 -8
6 -18 9 -23 6 -6 -3 -15 0 -21 8 -6 7 -23 12 -37 10 -16 -1 -24 2 -21 9 2 7
18 13 35 15 18 2 32 9 32 17 0 7 7 15 15 19 16 6 34 45 40 86 2 14 4 27 5 30
8 23 2 85 -12 133 -10 33 -18 63 -18 68 0 11 22 8 31 -4 4 -5 36 -10 73 -12
61 -4 68 -2 75 18 14 40 0 167 -19 167 -4 0 -11 12 -15 27 -3 15 -22 42 -42
59 -28 25 -33 35 -25 49 10 20 5 55 -9 55 -5 0 -9 8 -9 18 1 11 9 3 24 -20 12
-21 26 -35 29 -31z m18783 6 c-11 -11 -26 10 -26 35 l1 27 15 -28 c9 -16 13
-31 10 -34z m-20856 17 c27 -16 50 -27 50 -23 0 3 8 0 18 -8 9 -8 35 -24 57
-34 22 -11 47 -25 55 -32 8 -6 17 -11 20 -11 3 1 15 -5 27 -12 20 -13 21 -40
1 -40 -5 0 -7 4 -4 9 3 5 -5 16 -19 25 -22 15 -29 14 -87 -4 -35 -11 -71 -20
-81 -20 -23 0 -89 -30 -99 -44 -4 -6 -4 -14 -2 -18 9 -14 -55 -12 -70 2 -4 5
2 19 14 32 38 40 62 118 50 163 -3 10 9 45 16 45 2 0 26 -13 54 -30z m1720 10
c0 -5 -5 -10 -11 -10 -5 0 -7 5 -4 10 3 6 8 10 11 10 2 0 4 -4 4 -10z m734
-32 c15 -22 23 -44 19 -48 -14 -13 -133 -22 -133 -10 0 14 -27 13 -32 -2 -3
-9 -6 -9 -11 -1 -5 7 6 16 27 23 19 6 37 17 40 25 3 8 12 15 20 15 8 0 18 9
21 20 9 29 18 25 49 -22z m-695 -25 c7 -26 7 -39 0 -44 -8 -4 -8 -13 1 -29 7
-12 10 -35 8 -51 -3 -17 1 -30 9 -33 7 -3 13 -12 13 -20 0 -7 6 -16 14 -19 8
-3 13 -13 12 -21 -3 -19 -16 -34 -16 -18 0 6 -9 13 -20 17 -23 7 -37 52 -34
112 1 24 -1 41 -5 39 -4 -3 -13 18 -20 46 -11 42 -11 52 0 58 19 12 27 4 38
-37z m12603 20 c8 -10 22 -34 32 -53 9 -19 21 -42 26 -50 35 -58 40 -83 25
-113 -8 -17 -15 -38 -15 -48 0 -10 -4 -21 -10 -24 -5 -3 -10 -17 -10 -30 0
-13 -4 -27 -10 -30 -11 -7 -13 -77 -4 -113 5 -16 16 -24 45 -28 87 -14 41 -24
-111 -24 l-160 0 2 178 c3 173 4 177 26 187 12 5 22 15 22 21 0 6 9 19 20 29
11 10 20 22 20 27 0 15 62 88 75 88 7 0 19 -8 27 -17z m6880 -8 c0 -5 -5 -11
-11 -13 -6 -2 -11 4 -11 13 0 9 5 15 11 13 6 -2 11 -8 11 -13z m-334 -1 c25
-7 31 -34 7 -34 -8 0 -24 9 -35 20 -21 21 -13 25 28 14z m307 -17 c17 -13 16
-16 -19 -53 -20 -21 -36 -43 -37 -49 0 -5 -5 -1 -10 10 -5 11 -16 31 -24 45
-16 27 -10 38 22 43 13 2 26 6 29 10 10 10 18 9 39 -6z m-282 -70 c-3 -6 -11
-3 -19 8 -7 10 -11 22 -7 28 3 6 11 3 19 -8 7 -10 11 -22 7 -28z m160 23 c3
-11 2 -22 -1 -24 -11 -6 -52 13 -52 24 0 6 4 9 9 5 5 -3 12 -1 16 5 10 16 22
12 28 -10z m-154 -81 c-16 -40 -14 -93 6 -123 14 -22 14 -24 -2 -31 -10 -5
-27 -7 -38 -5 -18 2 -37 5 -71 9 -5 0 -19 9 -30 19 -11 11 -26 21 -34 24 -10
3 0 12 25 23 22 11 46 27 53 37 7 9 19 24 27 32 8 8 15 19 15 25 0 13 54 39
59 28 1 -4 -3 -22 -10 -38z m-1929 14 c0 -11 -20 -40 -20 -29 0 5 -6 3 -14 -3
-8 -7 -12 -21 -9 -32 4 -15 8 -17 14 -8 9 15 17 -15 20 -76 4 -68 0 -102 -10
-86 -6 10 -9 3 -9 -22 0 -53 -24 -80 -35 -38 -2 10 -18 23 -34 29 -56 19 -139
-44 -98 -74 23 -17 10 -34 -26 -34 -34 0 -38 17 -9 48 11 12 20 33 20 47 0 15
6 25 14 25 8 0 31 9 50 21 20 12 36 18 36 14 0 -4 6 -2 13 4 8 6 17 7 21 3 8
-7 -3 46 -13 63 -3 6 -6 15 -7 20 -1 6 -3 15 -5 21 -2 5 16 33 41 62 43 48 60
62 60 45z m-18315 -69 c14 -13 30 -24 36 -24 5 0 9 -4 9 -8 0 -9 90 -77 102
-77 3 0 9 -3 13 -7 4 -4 13 -4 21 -1 9 3 14 -1 14 -12 0 -12 -5 -15 -17 -10
-10 4 -22 8 -28 9 -15 4 -46 16 -75 29 -14 6 -29 10 -34 8 -4 -1 -14 4 -22 10
-8 6 -14 8 -14 4 0 -4 -6 -2 -13 4 -8 6 -17 7 -21 3 -4 -4 -14 1 -21 11 -7 10
-15 17 -17 16 -11 -7 -46 14 -44 28 7 43 72 53 111 17z m-85 -69 c0 -8 -4 -15
-9 -15 -13 0 -22 16 -14 24 11 11 23 6 23 -9z m340 -15 c-23 -23 -50 -26 -50
-6 0 14 18 23 53 25 15 1 15 -1 -3 -19z m-296 3 c3 -4 16 -8 29 -10 32 -5 38
-16 22 -43 -8 -14 -19 -34 -24 -45 -5 -11 -10 -15 -10 -10 -1 6 -17 28 -37 49
-35 37 -36 40 -19 53 21 15 29 16 39 6z m17550 -38 c11 -8 20 -26 22 -39 2
-23 1 -24 -29 -14 -39 14 -48 27 -36 50 12 22 18 22 43 3z m-17439 -5 c4 -6
11 -8 16 -5 5 4 9 1 9 -5 0 -11 -41 -30 -52 -24 -8 5 2 44 13 44 4 0 11 -5 14
-10z m155 -21 c-6 -11 -15 -17 -21 -14 -5 4 -5 14 1 26 6 11 15 17 21 14 5 -4
5 -14 -1 -26z m19116 -34 c-3 -9 -10 -13 -16 -10 -6 4 -5 11 3 20 15 16 22 11
13 -10z m859 -17 c-8 -74 25 -134 84 -153 12 -3 21 -10 21 -15 0 -5 -12 -2
-27 6 -16 7 -34 14 -41 14 -7 0 -37 11 -65 24 -29 13 -59 26 -67 28 -8 3 -25
24 -37 47 l-22 41 32 -3 c18 -2 38 1 45 6 7 5 27 17 45 27 17 10 33 18 34 19
1 0 0 -18 -2 -41z m-19955 -9 c0 -6 7 -17 15 -25 8 -8 20 -23 27 -32 7 -10 31
-26 53 -37 25 -11 35 -20 25 -23 -8 -3 -23 -13 -34 -24 -11 -10 -25 -19 -30
-19 -34 -4 -53 -7 -71 -9 -11 -2 -28 0 -38 5 -16 7 -17 9 -2 32 19 28 22 91 6
121 -6 11 -11 27 -11 36 0 13 3 13 30 0 17 -9 30 -20 30 -25z m17287 2 c22
-29 16 -44 -14 -36 -16 4 -36 7 -45 7 -21 -1 -21 -1 -8 33 8 21 14 25 32 19
13 -4 28 -14 35 -23z m1799 -17 c-3 -9 -6 -22 -6 -30 0 -8 -4 -14 -9 -14 -7 0
-8 19 -2 53 0 4 6 7 12 7 6 0 8 -7 5 -16z m1226 -27 c-34 -40 -50 -166 -22
-175 5 -2 10 -10 10 -18 0 -8 6 -14 14 -14 16 0 31 -18 23 -27 -3 -3 -30 6
-59 20 -29 14 -73 30 -98 37 -65 17 -66 20 -21 43 23 11 41 27 41 34 0 7 6 13
13 13 6 0 25 25 41 55 17 30 37 56 45 58 20 4 26 -10 13 -26z m-18353 -21 l33
-34 -30 -4 c-29 -4 -30 -2 -34 34 -2 21 -3 38 -3 38 1 0 16 -15 34 -34z
m15123 1 c35 -26 27 -37 -23 -37 -28 0 -39 4 -39 15 0 9 6 12 18 8 15 -5 14
-4 -2 9 -11 8 -16 20 -12 27 8 12 14 9 58 -22z m252 -22 c4 -10 -1 -15 -14
-15 -13 0 -18 5 -14 15 4 8 10 15 14 15 4 0 10 -7 14 -15z m217 5 c6 0 7 -4 4
-10 -3 -5 -17 -10 -30 -10 -18 0 -23 4 -18 16 3 8 12 13 20 10 8 -3 19 -6 24
-6z m2314 -24 c78 -38 145 -66 157 -66 8 0 22 -6 32 -13 23 -17 12 -43 -26
-63 -36 -18 -88 -69 -89 -87 0 -7 -2 -23 -4 -37 -1 -14 3 -37 10 -52 13 -27 9
-33 -17 -29 -5 0 -8 -4 -8 -10 0 -16 -51 -1 -67 19 -30 38 -34 62 -13 84 11
12 20 28 20 35 0 7 5 13 10 13 6 0 10 7 10 15 0 9 7 29 15 45 15 29 15 29 -7
22 -13 -4 -42 -7 -66 -7 -24 1 -47 -4 -53 -12 -6 -7 -15 -10 -20 -7 -5 3 -12
-1 -15 -9 -3 -8 -13 -13 -23 -10 -17 4 -17 10 6 102 l25 98 46 -8 c26 -5 61
-15 77 -23z m-19792 -163 c7 -5 26 -8 44 -6 l32 3 -22 -41 c-12 -23 -29 -44
-37 -47 -8 -2 -38 -15 -67 -28 -28 -13 -58 -24 -65 -24 -7 0 -25 -7 -40 -14
-16 -8 -28 -11 -28 -6 0 5 9 12 21 15 58 19 92 79 84 151 l-4 41 35 -17 c19
-10 40 -22 47 -27z m-377 -79 c16 -30 35 -54 42 -54 6 0 12 -6 12 -13 0 -7 18
-23 41 -34 45 -23 44 -26 -21 -43 -25 -7 -69 -23 -98 -37 -29 -14 -56 -23 -59
-20 -8 9 7 27 23 27 8 0 14 6 14 14 0 8 5 16 10 18 27 9 9 155 -21 174 -5 3
-9 11 -9 19 0 30 38 1 66 -51z m565 -26 c6 -24 18 -56 26 -73 9 -17 12 -30 6
-32 -6 -2 -8 -14 -6 -26 4 -19 -2 -25 -31 -34 -28 -9 -36 -8 -40 4 -3 8 -10
12 -15 9 -5 -3 -14 0 -20 7 -6 8 -29 13 -53 12 -24 0 -53 3 -66 7 -22 7 -22 7
-7 -22 8 -16 15 -36 15 -45 0 -8 5 -15 10 -15 6 0 10 -6 10 -13 0 -7 9 -23 20
-35 21 -22 17 -46 -13 -84 -16 -20 -67 -35 -67 -19 0 6 -3 10 -7 10 -27 -4
-31 2 -18 29 7 15 11 38 10 52 -2 14 -4 30 -4 37 -1 18 -53 69 -89 87 -38 20
-49 46 -26 63 10 7 24 13 32 13 12 0 78 28 157 66 17 7 54 19 84 24 30 6 57
12 59 15 13 13 22 2 33 -37z m26 -30 c-3 -8 -6 -5 -6 6 -1 11 2 17 5 13 3 -3
4 -12 1 -19z m19567 -95 c-10 -7 -29 -13 -43 -13 l-26 1 25 14 c14 7 33 13 43
12 17 -1 17 -2 1 -14z m-17848 -363 c16 -140 20 -157 25 -115 l6 50 3 -45 c1
-25 2 -52 1 -60 -1 -9 5 -34 13 -57 14 -41 14 -41 -11 -46 -18 -3 -26 1 -32
17 -11 27 -20 127 -26 286 -3 69 -8 134 -11 145 -4 15 -3 16 4 5 5 -8 18 -89
28 -180z m-1636 93 c0 -35 0 -36 -20 -18 -11 10 -20 15 -20 11 0 -4 -5 -4 -10
-1 -14 9 11 33 48 44 1 1 2 -15 2 -36z m-224 -1 c18 -11 17 -11 -7 -12 -14 0
-34 6 -45 14 -18 14 -18 15 7 12 14 -2 34 -8 45 -14z m19479 -31 c19 -8 19 -8
0 -18 -24 -12 -45 -6 -45 13 0 15 14 17 45 5z m-1634 -58 c13 -16 12 -17 -3
-4 -17 13 -22 21 -14 21 2 0 10 -8 17 -17z m828 -128 c-4 -33 -10 -87 -13
-120 -4 -48 -29 -125 -40 -125 -1 0 -2 21 -3 48 0 26 -4 67 -9 91 l-9 44 -14
-27 c-8 -14 -18 -26 -23 -26 -4 0 -8 -9 -8 -19 0 -11 -4 -21 -10 -23 -13 -4
-36 -87 -32 -114 1 -11 17 -28 34 -38 23 -14 27 -20 17 -27 -8 -5 -9 -9 -4 -9
15 1 45 26 45 38 0 6 4 13 8 16 5 3 9 -10 10 -29 1 -19 -3 -37 -7 -40 -5 -3
-7 -14 -4 -26 5 -19 -13 -67 -30 -80 -8 -6 -19 -65 -20 -112 0 -19 -5 -27 -16
-25 -9 1 -30 -5 -48 -14 -17 -9 -34 -14 -37 -11 -5 5 0 61 10 121 3 18 9 30
14 27 16 -10 79 39 90 68 12 37 -8 60 -54 61 -26 1 -32 5 -30 21 1 11 3 20 4
20 1 0 3 38 5 85 1 47 3 90 4 95 1 6 17 28 36 49 19 22 35 43 35 48 0 4 7 8
15 8 8 0 15 4 15 8 0 9 70 85 75 80 1 -1 -1 -30 -6 -63z m-18421 -66 c-10 -5
-18 -16 -18 -23 0 -20 -36 -26 -57 -11 -16 12 -14 14 20 20 20 4 40 11 43 16
3 5 11 9 17 9 7 0 4 -5 -5 -11z m1685 -145 c-7 -20 -10 -18 -15 11 -4 20 -2
23 8 14 7 -6 10 -17 7 -25z m-883 -76 c0 -5 7 -8 15 -8 8 0 15 -4 15 -8 0 -5
16 -26 35 -48 19 -21 35 -43 36 -49 1 -5 3 -48 4 -95 2 -47 4 -85 5 -85 1 0 3
-9 4 -20 2 -17 -4 -20 -34 -21 -28 -2 -36 2 -37 16 -1 9 9 23 22 30 13 7 25
22 27 34 4 27 -19 110 -32 114 -6 2 -10 12 -10 23 0 10 -3 19 -8 19 -4 0 -15
12 -24 28 l-17 27 -2 -35 -1 -35 -14 45 c-8 25 -17 63 -19 85 l-4 40 19 -25
c11 -14 20 -28 20 -32z m224 -210 c3 -57 1 -76 -7 -71 -9 5 -9 3 -1 -8 7 -8
13 -41 14 -74 5 -108 7 -140 10 -145 2 -3 4 -30 5 -60 1 -30 5 -80 9 -110 5
-37 4 -50 -3 -40 -5 8 -7 18 -4 23 3 5 0 13 -7 17 -6 4 -13 22 -15 41 -2 19
-7 51 -9 71 -4 22 -1 40 5 44 8 4 7 9 -2 15 -12 7 -12 12 -1 29 10 17 10 21
-2 26 -8 3 -15 13 -15 22 -1 87 -12 215 -19 229 -17 33 -14 121 5 143 18 20
18 20 25 -27 5 -26 10 -83 12 -125z m653 140 c1 -27 -1 -29 -7 -13 -11 27 -12
45 -2 45 5 0 9 -15 9 -32z m6 -155 c2 -5 1 -21 -3 -38 l-6 -30 -5 38 c-4 33 3
50 14 30z m16457 -73 c0 -5 -4 -10 -10 -10 -5 0 -10 5 -10 10 0 6 5 10 10 10
6 0 10 -4 10 -10z m-16473 -72 c-3 -7 -5 -2 -5 12 0 14 2 19 5 13 2 -7 2 -19
0 -25z m16463 8 c0 -8 -4 -18 -10 -21 -5 -3 -10 3 -10 14 0 12 5 21 10 21 6 0
10 -6 10 -14z m-633 -88 c-3 -7 -5 -2 -5 12 0 14 2 19 5 13 2 -7 2 -19 0 -25z
m-16577 -13 c9 6 16 -24 24 -102 10 -88 -38 -52 -65 49 -10 40 -19 75 -19 77
0 2 11 -4 25 -13 14 -9 30 -14 35 -11z m17151 -221 c-9 -28 -9 -29 -10 -3 -1
14 2 29 6 32 11 12 13 2 4 -29z m100 -75 c24 -17 28 -25 23 -47 -11 -44 -15
-45 -35 -13 -21 35 -35 81 -24 81 4 0 20 -9 36 -21z m-16501 -93 c0 -52 -6
-43 -13 18 -3 30 -1 43 4 35 5 -8 9 -32 9 -53z m3 -170 c3 -28 2 -43 -3 -35
-4 7 -10 36 -13 63 -3 28 -2 43 3 35 4 -7 10 -36 13 -63z m16472 35 c-5 -25
-9 -28 -19 -18 -25 25 -26 46 -3 49 29 5 30 4 22 -31z m-17128 -43 c-3 -8 -6
-5 -6 6 -1 11 2 17 5 13 3 -3 4 -12 1 -19z m16411 -113 c-3 -3 -9 2 -12 12 -6
14 -5 15 5 6 7 -7 10 -15 7 -18z m-15750 -98 c5 -37 5 -64 1 -60 -4 4 -9 40
-13 78 -7 85 0 75 12 -18z m16381 40 c-28 -31 -39 -67 -19 -67 5 0 15 9 22 20
13 21 37 27 39 10 2 -13 2 -14 24 -97 13 -50 25 -74 39 -81 13 -5 16 -11 9
-15 -6 -4 -18 0 -26 8 -9 8 -23 15 -31 15 -9 0 -16 5 -16 10 0 6 -5 10 -11 10
-6 0 -28 15 -48 33 -38 35 -39 37 -20 133 9 47 12 51 38 52 l29 1 -29 -32z
m-620 -84 c12 -13 27 -23 34 -23 16 -1 76 -50 60 -50 -6 0 -19 -3 -29 -7 -12
-4 -15 -3 -10 5 5 8 -1 12 -18 12 -13 0 -38 11 -54 25 -17 14 -35 25 -42 25
-8 0 -9 6 -5 18 4 9 10 30 13 46 l5 29 12 -29 c7 -16 22 -39 34 -51z m-16331
17 c12 -22 22 -47 22 -58 0 -20 -49 -72 -68 -72 -7 0 -12 -4 -12 -10 0 -5 -7
-10 -16 -10 -8 0 -22 -7 -31 -15 -8 -8 -20 -12 -26 -8 -7 4 -4 10 9 15 14 7
26 31 39 81 23 86 22 84 24 100 2 28 37 14 59 -23z m613 -254 c25 -52 21 -116
-9 -116 -14 0 -17 12 -19 80 -1 44 0 80 2 80 2 0 13 -20 26 -44z m-500 -157
c20 -10 20 -11 2 -24 -19 -14 -33 -4 -33 23 0 15 6 15 31 1z m-1081 -41 c0 6
60 -57 60 -63 0 -2 -11 -2 -24 -1 -14 2 -30 -1 -38 -5 -8 -6 -1 -7 20 -5 19 2
39 -2 46 -10 8 -7 16 -10 20 -7 3 4 6 2 6 -4 0 -6 -13 -13 -28 -16 -32 -7
-118 -79 -127 -107 -8 -26 -25 -26 -20 -1 5 25 -15 101 -26 101 -5 0 -9 11 -9
25 0 19 4 23 18 18 10 -3 8 1 -7 12 -20 15 -22 20 -9 29 8 6 22 23 32 38 l18
27 34 -19 c19 -11 34 -16 34 -12z m-260 1 c0 -6 -4 -7 -10 -4 -5 3 -10 11 -10
16 0 6 5 7 10 4 6 -3 10 -11 10 -16z m629 -33 c-8 -8 -13 -7 -16 2 -3 6 -11
12 -19 12 -9 0 -13 4 -9 10 3 6 15 5 31 -2 18 -9 22 -14 13 -22z m1239 -86
c-1 -29 -2 -26 -8 15 -11 69 -10 126 1 65 4 -25 7 -61 7 -80z m-1229 66 c-2
-2 -20 -6 -39 -10 l-35 -6 35 14 c31 12 51 13 39 2z m-112 -48 c-21 -17 -47
-48 -58 -69 -19 -39 -39 -51 -39 -25 0 8 -12 28 -26 45 -26 31 -26 31 -4 31
34 0 102 21 130 41 41 28 38 10 -3 -23z m1351 -263 c0 -22 -3 -18 -9 15 -4 25
-7 59 -7 75 0 22 3 18 9 -15 4 -25 7 -58 7 -75z m22 -484 c0 -45 -6 -37 -13
18 -4 29 -2 40 4 30 5 -7 9 -29 9 -48z m14 -291 l5 -75 -14 90 c-15 100 -17
149 -5 95 5 -19 11 -69 14 -110z m15846 -351 c0 -6 -4 -7 -10 -4 -5 3 -10 11
-10 16 0 6 5 7 10 4 6 -3 10 -11 10 -16z m-16110 2 c0 -6 -4 -13 -10 -16 -5
-3 -10 1 -10 9 0 9 5 16 10 16 6 0 10 -4 10 -9z m286 -37 c-30 -21 -45 -16
-16 6 14 10 27 16 30 13 3 -2 -4 -11 -14 -19z m16400 -63 c-9 -14 -46 -20 -46
-7 0 6 11 13 26 14 14 1 23 -2 20 -7z m-16357 -240 c2 -54 -11 -8 -14 51 -3
59 -3 60 5 18 5 -25 9 -56 9 -69z m1 -136 c0 -5 -5 -3 -10 5 -5 8 -10 20 -10
25 0 6 5 3 10 -5 5 -8 10 -19 10 -25z m40 -766 c11 -40 17 -75 15 -77 -4 -4
-8 10 -25 78 -6 25 -14 54 -17 65 -3 11 -2 17 2 13 3 -3 15 -39 25 -79z
m15347 -41 c-3 -7 -5 -2 -5 12 0 14 2 19 5 13 2 -7 2 -19 0 -25z m-129 -253
c-4 -40 -2 -65 4 -65 6 0 7 -10 4 -22 -4 -13 -8 -28 -10 -35 -4 -23 -13 -24
-19 -3 -3 11 -1 20 4 20 4 0 8 15 7 33 -3 56 2 137 8 137 4 0 4 -29 2 -65z
m-15075 -105 c3 -11 2 -20 -3 -20 -8 0 -20 24 -20 41 0 17 17 1 23 -21z m7
-40 c0 -5 -2 -10 -4 -10 -3 0 -8 5 -11 10 -3 6 -1 10 4 10 6 0 11 -4 11 -10z
m95 -436 c6 -44 1 -37 -14 20 -7 26 -7 36 0 29 5 -5 12 -27 14 -49z m14866 5
c-6 -24 -9 -28 -10 -12 -1 24 9 56 16 50 2 -3 0 -20 -6 -38z m504 -736 c-2
-72 -9 -131 -15 -137 -8 -8 -10 -4 -6 14 2 14 8 60 11 103 4 59 3 77 -7 78
-10 0 -10 2 0 6 6 2 12 18 12 34 0 16 2 29 5 29 3 0 3 -57 0 -127z m-798 -398
c-4 -8 -11 -15 -17 -15 -6 0 -6 7 2 20 14 22 24 19 15 -5z m-14262 -23 c-8 -8
-25 10 -25 26 0 13 2 13 14 -4 8 -10 13 -21 11 -22z m-914 -31 c49 -10 29 -15
-41 -11 -51 2 -55 4 -45 20 4 6 15 8 25 5 10 -3 38 -10 61 -14z m15038 -478
c-23 -92 -47 -172 -52 -178 -7 -7 -8 -4 -4 7 3 9 25 93 49 187 24 94 44 167
46 161 2 -5 -16 -85 -39 -177z m-14025 103 c8 -32 11 -55 7 -50 -11 12 -31 87
-30 110 1 23 4 15 23 -60z m43 -198 c-3 -8 -6 -5 -6 6 -1 11 2 17 5 13 3 -3 4
-12 1 -19z m14871 -99 c-3 -20 -5 -19 -9 9 -3 20 -2 29 4 23 5 -5 7 -19 5 -32z
m2 -86 c0 -17 -3 -34 -7 -36 -5 -3 -8 17 -8 43 0 27 3 43 7 37 4 -7 8 -26 8
-44z m-963 5 c-3 -7 -5 -2 -5 12 0 14 2 19 5 13 2 -7 2 -19 0 -25z m-37 -176
c0 -9 -11 -57 -25 -106 -13 -49 -22 -92 -20 -96 2 -3 -9 -55 -24 -114 l-27
-109 -27 32 c-27 33 -35 61 -17 61 5 0 18 18 28 40 10 22 20 38 23 35 3 -2 20
58 39 135 19 77 38 140 42 140 4 0 8 -8 8 -18z m-13740 -132 c19 -77 38 -140
42 -140 4 0 8 -7 8 -15 0 -8 4 -15 8 -15 12 0 36 -52 33 -70 -2 -8 -12 -25
-24 -38 l-22 -23 -27 107 c-15 60 -25 111 -23 114 2 4 -7 47 -20 96 -26 93
-30 124 -17 124 4 0 23 -63 42 -140z m14747 -152 c-3 -8 -6 -5 -6 6 -1 11 2
17 5 13 3 -3 4 -12 1 -19z m-15859 -89 c-3 -8 -7 -3 -11 10 -4 17 -3 21 5 13
5 -5 8 -16 6 -23z"/>
<path d="M30744 25039 c-19 -22 -19 -22 4 -8 12 8 22 17 22 21 0 12 -6 9 -26
-13z"/>
<path d="M7360 24782 c0 -4 10 -13 23 -21 22 -14 22 -14 3 8 -20 22 -26 25
-26 13z"/>
<path d="M27860 24251 c0 -5 7 -12 16 -15 14 -5 15 -4 4 9 -14 17 -20 19 -20
6z"/>
<path d="M28230 24520 c0 -5 5 -10 11 -10 5 0 7 5 4 10 -3 6 -8 10 -11 10 -2
0 -4 -4 -4 -10z"/>
<path d="M10250 23975 c-11 -13 -10 -14 4 -9 9 3 16 10 16 15 0 13 -6 11 -20
-6z"/>
<path d="M27740 22630 c0 -6 7 -10 15 -10 8 0 15 2 15 4 0 2 -7 6 -15 10 -8 3
-15 1 -15 -4z"/>
<path d="M10370 22360 c-13 -8 -12 -10 3 -10 9 0 17 5 17 10 0 12 -1 12 -20 0z"/>
<path d="M8897 26174 c-2 -3 -14 -6 -25 -9 -25 -4 -66 -33 -80 -56 -12 -18 12
-119 28 -119 5 0 16 -20 26 -45 9 -25 22 -49 28 -53 6 -4 35 -33 64 -64 28
-31 52 -54 52 -50 1 4 10 -4 20 -17 11 -13 20 -20 20 -16 0 4 7 1 17 -6 9 -8
26 -14 38 -14 13 -1 29 -5 36 -11 20 -15 105 -15 149 1 20 7 51 12 67 11 l30
-2 -2 56 c-3 99 -31 164 -101 235 -58 58 -178 143 -196 138 -4 -2 -20 2 -35 9
-28 11 -127 20 -136 12z"/>
<path d="M9403 25827 c0 -7 -3 -25 -7 -40 -4 -18 -2 -27 5 -27 7 0 10 3 7 6
-4 3 -2 19 2 35 5 16 5 31 1 33 -4 3 -8 0 -8 -7z"/>
<path d="M10650 25706 c0 -17 64 -202 71 -204 5 -2 9 -10 9 -18 0 -8 6 -14 13
-14 8 0 20 -12 28 -27 8 -16 16 -30 19 -33 13 -13 40 -70 40 -85 0 -9 5 -13
10 -10 6 3 10 -1 10 -9 0 -9 3 -16 8 -16 4 0 22 -14 41 -30 18 -17 40 -30 48
-30 7 0 16 -7 19 -15 4 -8 12 -15 19 -15 7 0 15 -6 18 -13 3 -7 23 -19 45 -26
34 -12 42 -11 66 4 14 10 29 29 32 44 4 14 10 31 14 36 13 19 20 46 10 40 -6
-3 -10 -3 -11 2 -6 80 -19 144 -27 139 -4 -3 -14 9 -22 27 -26 59 -103 137
-167 169 -24 12 -43 24 -43 28 0 4 -6 7 -12 8 -16 1 -39 7 -58 15 -8 4 -40 9
-70 11 -67 6 -81 9 -97 19 -7 5 -13 6 -13 3z"/>
<path d="M9393 25625 c0 -22 -3 -74 -7 -115 -4 -41 -5 -72 -2 -69 13 13 25
178 15 206 -4 11 -7 3 -6 -22z"/>
<path d="M10586 25277 c4 -12 8 -33 9 -47 4 -40 16 -80 26 -80 5 0 9 -7 9 -15
0 -37 66 -124 105 -138 8 -4 15 -14 15 -23 0 -10 3 -14 6 -11 4 3 15 -5 26
-19 20 -25 73 -58 96 -58 7 -1 16 -5 20 -11 21 -30 152 -51 152 -25 0 7 7 10
15 6 9 -3 16 1 16 9 2 17 5 34 9 38 6 7 12 49 15 107 2 41 0 58 -5 45 -5 -11
-9 -15 -9 -9 -1 6 -20 28 -42 50 -23 21 -51 48 -63 60 -33 32 -96 77 -96 69 0
-4 -6 -3 -12 3 -7 5 -40 17 -73 26 -33 9 -67 20 -75 23 -22 9 -40 12 -98 17
-51 5 -53 5 -46 -17z"/>
<path d="M30599 24963 c-13 -16 -12 -17 4 -4 16 13 21 21 13 21 -2 0 -10 -8
-17 -17z"/>
<path d="M30544 24934 c-18 -14 -18 -15 4 -4 12 6 22 13 22 15 0 8 -5 6 -26
-11z"/>
<path d="M30495 24910 c-3 -6 1 -7 9 -4 18 7 21 14 7 14 -6 0 -13 -4 -16 -10z"/>
<path d="M30450 24885 c-9 -10 -9 -15 -1 -15 6 0 11 5 11 11 0 5 5 7 12 3 7
-4 8 -3 4 4 -9 15 -11 15 -26 -3z"/>
<path d="M30220 24784 c-14 -8 -47 -23 -73 -35 -26 -12 -45 -24 -43 -27 3 -2
30 7 61 22 31 14 59 26 63 26 4 0 16 7 26 15 26 19 1 19 -34 -1z"/>
<path d="M7510 24706 c0 -2 8 -10 18 -17 15 -13 16 -12 3 4 -13 16 -21 21 -21
13z"/>
<path d="M7560 24676 c0 -3 9 -10 20 -16 11 -6 20 -8 20 -6 0 3 -9 10 -20 16
-11 6 -20 8 -20 6z"/>
<path d="M7610 24646 c0 -2 7 -7 16 -10 8 -3 12 -2 9 4 -6 10 -25 14 -25 6z"/>
<path d="M7654 24619 c-4 -7 -3 -9 4 -5 5 3 12 0 15 -6 2 -7 7 -10 11 -7 4 3
0 12 -8 18 -11 9 -16 9 -22 0z"/>
<path d="M7876 24515 c10 -8 22 -15 26 -15 4 0 32 -12 63 -26 31 -15 58 -24
61 -22 2 3 -12 13 -33 23 -21 9 -56 26 -79 36 -48 23 -65 25 -38 4z"/>
<path d="M12219 24392 c-1 -4 0 -15 1 -25 1 -10 -6 -35 -16 -55 -19 -40 -20
-105 -3 -149 6 -15 13 -44 15 -63 2 -19 6 -46 8 -60 6 -35 18 -112 20 -130 1
-9 5 -21 10 -28 4 -6 5 -16 1 -21 -3 -5 -1 -12 5 -16 5 -3 10 -2 10 3 0 5 20
15 44 22 41 11 61 26 115 85 20 22 24 37 24 83 0 83 -25 202 -42 202 -4 0 -13
16 -21 35 -7 19 -17 32 -21 29 -4 -2 -10 4 -13 14 -4 10 -19 28 -34 39 -30 22
-101 46 -103 35z"/>
<path d="M30390 23790 c-8 -5 -17 -7 -21 -5 -9 6 -138 -32 -155 -46 -8 -6 -14
-8 -14 -3 0 5 -7 -2 -16 -14 -8 -12 -19 -20 -24 -17 -4 3 -13 -2 -20 -10 -7
-8 -19 -15 -26 -15 -8 0 -14 -7 -14 -15 0 -8 -6 -15 -12 -15 -7 0 -29 -23 -48
-52 -19 -28 -41 -57 -48 -65 -10 -9 -12 -26 -7 -53 l7 -40 -27 10 c-15 6 -30
8 -33 6 -2 -3 7 -8 22 -12 33 -8 33 -22 1 -56 -14 -15 -25 -32 -25 -38 0 -5
-10 -20 -22 -32 -30 -30 -33 -102 -7 -140 24 -33 92 -67 146 -72 22 -2 52 -11
66 -20 17 -12 27 -14 32 -6 3 6 10 8 14 5 5 -2 19 7 32 22 16 18 20 27 12 30
-7 3 -13 11 -13 18 0 8 -9 20 -20 28 -11 8 -17 17 -13 20 3 4 -18 32 -49 62
-30 30 -63 66 -74 81 -10 14 -23 31 -29 38 -5 6 -11 19 -13 30 -3 17 -2 17 26
-3 17 -11 36 -21 44 -21 7 0 22 -7 32 -15 24 -18 40 -20 30 -3 -5 8 -2 9 10 5
10 -4 23 -4 29 0 7 4 21 9 31 10 11 2 26 9 34 15 8 7 22 13 32 15 10 1 31 14
46 28 15 14 47 43 71 63 23 20 43 43 43 49 0 7 9 18 20 25 11 7 20 18 20 24 0
6 7 17 15 24 20 16 65 114 65 140 0 17 -7 19 -60 19 -32 0 -63 2 -68 5 -4 2
-14 1 -22 -4z"/>
<path d="M7717 23524 c-3 -3 -33 -5 -66 -5 -54 0 -61 -2 -61 -19 0 -26 45
-124 65 -140 8 -7 15 -18 15 -24 0 -6 9 -17 20 -24 11 -7 20 -18 20 -25 0 -6
20 -29 43 -49 24 -20 56 -49 71 -63 15 -14 36 -27 46 -28 10 -2 24 -8 32 -15
8 -6 23 -13 34 -15 10 -1 24 -6 31 -10 6 -4 19 -4 29 0 12 4 15 3 10 -5 -10
-17 6 -15 30 3 10 8 25 15 32 15 8 0 27 10 44 21 28 20 29 20 26 3 -2 -11 -7
-24 -13 -30 -5 -7 -19 -24 -29 -38 -11 -15 -44 -51 -74 -81 -31 -30 -52 -58
-49 -62 4 -3 -2 -12 -13 -20 -11 -8 -20 -20 -20 -28 0 -7 -6 -15 -12 -18 -9
-3 -5 -12 11 -30 13 -15 27 -24 32 -22 4 3 11 1 14 -5 5 -8 15 -6 32 6 14 9
44 18 66 20 54 5 122 39 146 72 26 38 23 110 -7 140 -12 12 -22 27 -22 32 0 6
-11 23 -25 38 -32 34 -32 48 1 56 15 4 24 9 22 12 -3 2 -18 0 -33 -6 l-27 -10
7 40 c5 27 3 44 -7 53 -7 8 -29 37 -48 65 -19 29 -41 52 -47 52 -7 0 -13 7
-13 15 0 8 -6 15 -14 15 -7 0 -19 7 -26 15 -7 8 -16 13 -20 10 -5 -3 -16 5
-24 17 -9 12 -16 19 -16 14 0 -5 -6 -3 -14 3 -16 14 -148 53 -154 46 -3 -2
-12 0 -22 5 -10 5 -20 7 -23 4z"/>
<path d="M29694 23517 c-6 -7 -27 -25 -48 -42 -20 -16 -36 -33 -36 -38 0 -4
-9 -17 -20 -29 -11 -12 -18 -30 -16 -41 3 -24 54 -77 73 -77 7 0 13 -4 13 -8
0 -5 16 -14 37 -20 30 -9 40 -8 62 6 14 10 41 17 59 16 23 -2 35 3 43 18 12
22 9 27 -66 104 -74 76 -92 99 -87 112 5 15 0 15 -14 -1z"/>
<path d="M30130 23343 c0 -11 3 -23 8 -27 4 -4 7 -11 8 -14 4 -30 56 -133 77
-152 54 -51 174 -71 267 -45 25 7 68 16 95 20 61 8 113 25 118 39 2 6 -5 19
-15 29 -10 9 -18 15 -18 11 0 -4 -68 43 -80 56 -17 19 -67 46 -77 43 -7 -3
-13 0 -13 5 0 19 -57 28 -225 36 -44 2 -95 7 -112 11 -29 6 -33 5 -33 -12z"/>
<path d="M8422 23250 c5 -15 -11 -36 -87 -114 -75 -77 -78 -82 -66 -104 8 -15
20 -20 43 -18 18 1 45 -6 59 -16 22 -14 32 -15 62 -6 21 6 37 15 37 20 0 4 6
8 13 8 19 0 70 53 73 77 2 11 -5 29 -16 41 -11 12 -20 25 -20 29 0 5 -16 22
-36 38 -20 17 -44 37 -52 45 -13 12 -14 12 -10 0z"/>
<path d="M7956 23083 c-4 -4 -46 -8 -94 -10 -170 -6 -232 -15 -232 -35 0 -5
-6 -8 -12 -5 -11 3 -61 -24 -78 -43 -12 -13 -80 -60 -80 -56 0 4 -8 -2 -18
-11 -10 -10 -17 -23 -15 -29 5 -14 57 -31 118 -39 28 -4 70 -13 95 -20 93 -26
213 -6 267 45 21 19 73 122 77 152 1 3 4 10 9 14 14 15 7 44 -11 44 -10 0 -22
-3 -26 -7z"/>
<path d="M28831 22993 c-1 -13 -5 -23 -11 -23 -5 0 -10 -6 -10 -14 0 -8 -6
-16 -14 -19 -36 -14 -80 -176 -58 -212 4 -5 8 -18 9 -28 5 -29 44 -101 67
-121 58 -51 159 -96 172 -75 3 5 10 7 15 4 5 -4 9 -2 9 3 0 5 9 20 20 32 17
19 20 36 18 80 -1 30 -4 60 -7 65 -3 6 -7 16 -8 23 -16 72 -69 159 -139 229
-29 28 -54 58 -57 65 -3 7 -6 3 -6 -9z"/>
<path d="M9291 22733 c0 -7 -25 -36 -54 -65 -71 -71 -124 -158 -140 -230 -1
-7 -5 -17 -8 -23 -3 -5 -6 -35 -7 -65 -2 -44 1 -61 18 -80 11 -12 20 -27 20
-32 0 -5 4 -7 9 -3 5 3 12 1 15 -4 13 -21 114 24 172 75 23 20 62 92 67 121 1
10 5 23 9 28 22 36 -22 198 -58 212 -8 3 -14 11 -14 19 0 8 -4 14 -9 14 -5 0
-12 10 -14 23 -2 12 -5 17 -6 10z"/>
</g>
</svg>
